<svg width="1512" height="685" viewBox="0 0 1512 685" fill="none" xmlns="http://www.w3.org/2000/svg">
    <path
        d="M1499.61 6.89511L1337.59 100.078C1330.49 104.162 1333.39 115.013 1341.58 115.013H1503.6C1508.01 115.013 1511.6 111.431 1511.6 107.013V13.8299C1511.6 7.67742 1504.94 3.82769 1499.61 6.89511Z"
        fill="#01AC99" />
    <g filter="url(#filter0_d_25_108)">
        <path
            d="M1407.56 32.5735L1288.61 101.067C1281.52 105.154 1284.42 116 1292.61 116H1411.56C1415.97 116 1419.56 112.418 1419.56 108V39.5063C1419.56 33.352 1412.9 29.5024 1407.56 32.5735Z"
            fill="#00D86D" />
    </g>
    <g filter="url(#filter1_d_25_108)">
        <path
            d="M1311.71 64.1904L1247.85 101.072C1240.76 105.165 1243.66 116 1251.85 116H1315.71C1320.13 116 1323.71 112.418 1323.71 108V71.1181C1323.71 64.9592 1317.04 61.1102 1311.71 64.1904Z"
            fill="#BCF709" />
    </g>
    <path
        d="M11.9884 6.89511L174.005 100.078C181.106 104.162 178.209 115.013 170.017 115.013H7.99992C3.58165 115.013 -7.62939e-05 111.431 -7.62939e-05 107.013V13.8299C-7.62939e-05 7.67742 6.65512 3.82769 11.9884 6.89511Z"
        fill="#01AC99" />
    <g filter="url(#filter2_d_25_108)">
        <path
            d="M104.033 32.5735L222.983 101.067C230.08 105.154 227.18 116 218.991 116H100.041C95.6224 116 92.0407 112.418 92.0407 108V39.5063C92.0407 33.352 98.6994 29.5024 104.033 32.5735Z"
            fill="#00D86D" />
    </g>
    <g filter="url(#filter3_d_25_108)">
        <path
            d="M199.887 64.1904L263.748 101.072C270.836 105.165 267.932 116 259.747 116H195.886C191.467 116 187.886 112.418 187.886 108V71.1181C187.886 64.9592 194.553 61.1102 199.887 64.1904Z"
            fill="#BCF709" />
    </g>
    <rect y="102" width="1512" height="583" fill="#403A93" />
    <defs>
        <filter id="filter0_d_25_108" x="1269.59" y="16.4944" width="174.963" height="124.506"
            filterUnits="userSpaceOnUse" color-interpolation-filters="sRGB">
            <feFlood flood-opacity="0" result="BackgroundImageFix" />
            <feColorMatrix in="SourceAlpha" type="matrix"
                values="0 0 0 0 0 0 0 0 0 0 0 0 0 0 0 0 0 0 127 0" result="hardAlpha" />
            <feOffset dx="5" dy="5" />
            <feGaussianBlur stdDeviation="10" />
            <feComposite in2="hardAlpha" operator="out" />
            <feColorMatrix type="matrix" values="0 0 0 0 0 0 0 0 0 0 0 0 0 0 0 0 0 0 0.25 0" />
            <feBlend mode="normal" in2="BackgroundImageFix" result="effect1_dropShadow_25_108" />
            <feBlend mode="normal" in="SourceGraphic" in2="effect1_dropShadow_25_108" result="shape" />
        </filter>
        <filter id="filter1_d_25_108" x="1228.83" y="48.1062" width="119.875" height="92.8938"
            filterUnits="userSpaceOnUse" color-interpolation-filters="sRGB">
            <feFlood flood-opacity="0" result="BackgroundImageFix" />
            <feColorMatrix in="SourceAlpha" type="matrix"
                values="0 0 0 0 0 0 0 0 0 0 0 0 0 0 0 0 0 0 127 0" result="hardAlpha" />
            <feOffset dx="5" dy="5" />
            <feGaussianBlur stdDeviation="10" />
            <feComposite in2="hardAlpha" operator="out" />
            <feColorMatrix type="matrix" values="0 0 0 0 0 0 0 0 0 0 0 0 0 0 0 0 0 0 0.25 0" />
            <feBlend mode="normal" in2="BackgroundImageFix" result="effect1_dropShadow_25_108" />
            <feBlend mode="normal" in="SourceGraphic" in2="effect1_dropShadow_25_108" result="shape" />
        </filter>
        <filter id="filter2_d_25_108" x="67.0406" y="16.4944" width="174.963" height="124.506"
            filterUnits="userSpaceOnUse" color-interpolation-filters="sRGB">
            <feFlood flood-opacity="0" result="BackgroundImageFix" />
            <feColorMatrix in="SourceAlpha" type="matrix"
                values="0 0 0 0 0 0 0 0 0 0 0 0 0 0 0 0 0 0 127 0" result="hardAlpha" />
            <feOffset dx="-5" dy="5" />
            <feGaussianBlur stdDeviation="10" />
            <feComposite in2="hardAlpha" operator="out" />
            <feColorMatrix type="matrix" values="0 0 0 0 0 0 0 0 0 0 0 0 0 0 0 0 0 0 0.25 0" />
            <feBlend mode="normal" in2="BackgroundImageFix" result="effect1_dropShadow_25_108" />
            <feBlend mode="normal" in="SourceGraphic" in2="effect1_dropShadow_25_108" result="shape" />
        </filter>
        <filter id="filter3_d_25_108" x="162.886" y="48.1062" width="119.875" height="92.8938"
            filterUnits="userSpaceOnUse" color-interpolation-filters="sRGB">
            <feFlood flood-opacity="0" result="BackgroundImageFix" />
            <feColorMatrix in="SourceAlpha" type="matrix"
                values="0 0 0 0 0 0 0 0 0 0 0 0 0 0 0 0 0 0 127 0" result="hardAlpha" />
            <feOffset dx="-5" dy="5" />
            <feGaussianBlur stdDeviation="10" />
            <feComposite in2="hardAlpha" operator="out" />
            <feColorMatrix type="matrix" values="0 0 0 0 0 0 0 0 0 0 0 0 0 0 0 0 0 0 0.25 0" />
            <feBlend mode="normal" in2="BackgroundImageFix" result="effect1_dropShadow_25_108" />
            <feBlend mode="normal" in="SourceGraphic" in2="effect1_dropShadow_25_108" result="shape" />
        </filter>
    </defs>
</svg>
    