<svg width="866" height="683" viewBox="0 0 866 683" fill="none" xmlns="http://www.w3.org/2000/svg">
    <g clip-path="url(#clip0_350_250)">
        <path
            d="M465.61 631.12C465.61 631.12 493.93 665.64 535.29 681.59H570.78L521.28 649.39C519.029 647.918 516.691 646.582 514.28 645.39C507.95 642.176 502.52 637.437 498.48 631.6C497.53 630.223 496.681 628.779 495.94 627.28C492.16 619.81 478.59 592.85 476.07 585.58L465.61 631.12Z"
            fill="#723F24" />
        <path
            d="M343.83 601.17C343.83 601.17 342.2 630.17 369.55 681.59H399.83C393.036 669.854 386.916 657.741 381.5 645.31C376.983 634.474 375.157 622.705 376.18 611.01L377.04 601.17H343.83Z"
            fill="#723F24" />
        <path
            d="M346.76 536.8C346.76 536.8 361.3 488.4 436.19 501.2C436.19 501.2 469.95 505.42 480.03 540.29C481.9 546.941 482.69 553.849 482.37 560.75C482.1 567.43 481.18 577.38 478.28 586.03C477.4 588.65 476.55 591.28 475.85 593.96C471.64 610.03 459.58 660.14 466.91 681.59H361.74C361.74 681.59 358.16 595.59 369.23 563.07L346.76 536.8Z"
            fill="#97FCB5" />
        <path
            d="M453.81 532.74C453.81 532.74 463.75 527.89 475.76 505.02C475.76 505.02 480.46 505.94 475.76 514.02C475.76 514.02 469.08 523.02 477.85 522.33C477.85 522.33 482.85 523.43 495.3 514.1C495.74 513.755 496.257 513.52 496.807 513.416C497.357 513.311 497.924 513.34 498.46 513.5C499.33 513.79 499.79 514.5 498.17 516.1L487.77 524.88C487.77 524.88 503.05 517 506.14 518C506.14 518 510.05 519.47 500.93 523.7C503.001 523.225 505.127 523.027 507.25 523.11C507.525 523.143 507.785 523.256 507.997 523.435C508.208 523.614 508.363 523.851 508.442 524.117C508.52 524.383 508.52 524.666 508.439 524.931C508.359 525.196 508.203 525.432 507.99 525.61C506.63 526.79 503.29 528.42 495.4 530.21C495.4 530.21 503.54 529.4 502.89 531.68C502.89 531.68 501.89 535.1 477.33 539.98C477.33 539.98 461.05 543.89 459.26 546.33L453.81 532.74Z"
            fill="#723F24" />
        <path
            d="M516.73 525.66C516.73 525.66 511.95 515.96 516.73 512.71C516.73 512.71 517.16 515.1 524.32 529.21C524.32 529.21 530.62 539.41 529.32 554.39C529.32 554.39 535.18 566.98 552.11 579.39L585.75 603.7L615.49 566.8C615.49 566.8 636.55 532.28 648.71 528.16L645 587.6C645 587.6 630.24 598.67 621.34 607.6C621.34 607.6 599.2 634.52 576.84 624.75C576.84 624.75 563.6 616.82 546.35 597.29C546.35 597.29 524.53 569.94 519.65 561.8C519.65 561.8 509.34 548.55 516.39 538.03C516.4 538 521 534.16 516.73 525.66Z"
            fill="#723F24" />
        <path
            d="M789.91 636C789.91 636 752.14 595 747.58 582.6L758.65 539.29C758.65 539.29 803.91 606.04 808.8 633.55C809.081 635.726 808.843 637.937 808.107 640.004C807.37 642.07 806.154 643.933 804.56 645.44L778.25 682.88H765.82C765.82 682.88 776.89 647.4 789.91 636Z"
            fill="#723F24" />
        <path
            d="M674.19 492.35C676.151 497.125 677.297 502.196 677.58 507.35C677.58 507.35 696.72 503.35 712.87 506.72C712.87 506.72 695.54 487.51 698.03 465.77C697.359 466.496 696.443 466.947 695.459 467.038C694.475 467.128 693.492 466.851 692.7 466.26C692.7 466.26 688.4 485.15 674.19 492.35Z"
            fill="#723F24" />
        <path
            d="M455.51 531.49C455.51 531.49 438.25 524.65 376.06 562.09C376.06 562.09 369.88 558.84 352.29 538C352.29 538 314.29 492.28 282.36 487.23C282.36 487.23 288.16 496.37 271.99 495.6C269.77 495.49 267.55 495.48 265.34 495.6C259.62 495.9 256.15 494.89 259.69 487.24C259.69 487.24 205.23 499.04 181.35 554.18L176.88 641L204.36 670.52C204.36 670.52 207.83 677.9 213.04 681.59H322.88C322.88 681.59 326.35 678.33 325.05 669.65C325.05 669.65 328.24 613.55 325.34 598.41C325.34 598.41 344.59 614.71 368.03 608.1C368.03 608.1 449.65 578.48 463.11 544.62C463.11 544.62 455.51 540 455.51 531.49ZM214.76 610.49C214.76 610.49 206.53 591.74 219.53 576.77C219.53 576.82 220 598 214.76 610.54V610.49Z"
            fill="#97FCB5" />
        <path
            d="M455.51 531.49C455.51 531.49 438.25 524.65 376.06 562.09C376.06 562.09 369.88 558.84 352.29 538C352.29 538 314.29 492.28 282.36 487.23C282.36 487.23 288.16 496.37 271.99 495.6C269.77 495.49 267.55 495.48 265.34 495.6C259.62 495.9 256.15 494.89 259.69 487.24C259.69 487.24 205.23 499.04 181.35 554.18L176.88 641L204.36 670.52C204.36 670.52 207.83 677.9 213.04 681.59H322.88C322.88 681.59 326.35 678.33 325.05 669.65C325.05 669.65 328.24 613.55 325.34 598.41C325.34 598.41 344.59 614.71 368.03 608.1C368.03 608.1 449.65 578.48 463.11 544.62C463.11 544.62 455.51 540 455.51 531.49ZM214.76 610.49C214.76 610.49 206.53 591.74 219.53 576.77C219.53 576.82 220 598 214.76 610.54V610.49Z"
            fill="black" fill-opacity="0.17" />
        <path d="M163.59 520.3L173.17 496.98L159.16 483.13L155.36 515.22L163.59 520.3Z"
            fill="#723F24" />
        <path
            d="M201.54 473C201.54 489.63 191.77 503.12 179.72 503.12C167.67 503.12 157.91 489.67 157.91 473C157.91 471.78 157.96 470.58 158.07 469.39H157.91C154.77 469.39 152.22 465.92 152.22 461.64C152.22 457.36 154.77 453.9 157.91 453.9C158.66 453.92 159.396 454.11 160.061 454.457C160.726 454.803 161.304 455.297 161.75 455.9C165.67 448 172.26 442.83 179.75 442.83C191.77 442.92 201.54 456.4 201.54 473Z"
            fill="#723F24" />
        <path
            d="M80.0898 681.59C80.0898 681.59 100.27 651 93.4398 603.12L108.74 576.12V539.3L133.16 527.9L157.63 515.22C157.63 515.22 176.71 530.65 187.72 561.11C191.179 570.712 192.139 581.035 190.51 591.11C188.316 605.16 184.063 618.81 177.89 631.62C172.091 643.212 168.487 655.777 167.26 668.68C166.845 672.967 166.765 677.28 167.02 681.58L80.0898 681.59Z"
            fill="#97FCB5" />
        <path
            d="M94.7302 519.87C93.8202 514.23 95.1301 501.02 117.21 480.36C117.21 480.36 124.69 475.48 129.58 458.55C129.58 458.55 127.3 414.27 155.95 421.43C155.95 421.43 168 426.05 175.49 420.65C175.49 420.65 196 409.06 199.91 427.65C200.599 431.515 200.314 435.491 199.081 439.218C197.849 442.946 195.707 446.307 192.85 449C192.85 449 185.91 455 181.35 452.05C181.35 452.05 176.01 466.46 161.75 456C161.75 456 158.86 451.89 154.8 455.22C154.8 455.22 151.13 457.96 152.67 464.72C152.906 465.64 153.338 466.498 153.937 467.235C154.536 467.972 155.288 468.571 156.14 468.99C157.824 469.661 159.275 470.812 160.31 472.3C162.15 475.09 164.31 479.64 163.01 484.61C163.01 484.61 161.63 515.76 152.22 524.44C152.22 524.44 140.76 534.21 140.11 540.94C140.11 540.94 134.68 581.53 116.66 583.48C116.66 583.48 109.72 583.7 105.59 594.12C105.59 594.12 100.59 615.18 74.9901 605.63C74.9901 605.63 55.6702 600.2 66.3002 573.5C69.7262 566.813 73.8061 560.482 78.4802 554.6C80.5562 552.167 82.9473 550.021 85.5901 548.22C88.1701 546.41 92.4101 542.12 94.5201 532.64C95.3998 528.435 95.4711 524.101 94.7302 519.87Z"
            fill="black" />
        <path
            d="M153.15 566.47C151.89 563.6 150.67 560.71 149.59 557.77C139.17 529.4 121.59 534.9 121.59 534.9C116.1 536.37 113.34 541.72 111.97 547.17C110.25 554.164 110.711 561.516 113.29 568.24C124.586 597.469 142.211 623.836 164.9 645.45C164.9 645.45 191.11 669.54 219.11 681.59H255.58C255.58 681.59 203.7 648.36 194.52 642.3C193.94 641.91 193.35 641.54 192.76 641.18C190.46 639.77 182.42 634.18 177.43 621.68L153.15 566.47Z"
            fill="#723F24" />
        <path
            d="M648.71 681.59C648.71 681.59 658.36 654.59 638.83 581.3C638.83 581.3 619.62 524.3 677.58 507.39C677.58 507.39 731.95 494.39 758.98 536.04C760.61 537.04 767.12 559.81 748.23 587.16C748.23 587.16 735.23 618.1 743.35 681.59H648.71Z"
            fill="#97FCB5" />
        <path
            d="M58.3701 359.23C58.3701 359.23 103.31 325.05 79.8601 197.08C79.8601 197.08 58.7001 109.03 123.08 70.43C151.93 53.14 187.72 52.58 217.75 67.72C243.65 80.78 271.3 106.57 273.75 157.31C274.01 162.6 274.36 167.89 274.88 173.17C278.33 208.18 279.78 356.65 58.3701 359.23Z"
            fill="#EDE0F5" />
        <path
            d="M329 261.55C329 261.55 292 259.71 275.72 261.55C275.72 261.55 163.92 268.39 161.96 197.08C161.96 197.08 156.6 107.22 291.15 132.61C291.15 132.61 360.53 140.89 402.88 208.06C402.83 208.06 369 218.57 329 261.55Z"
            fill="#DDC4EC" />
        <path
            d="M246.71 209.77C250.604 209.77 253.76 206.614 253.76 202.72C253.76 198.826 250.604 195.67 246.71 195.67C242.817 195.67 239.66 198.826 239.66 202.72C239.66 206.614 242.817 209.77 246.71 209.77Z"
            fill="white" />
        <path
            d="M277.95 209.77C281.844 209.77 285 206.614 285 202.72C285 198.826 281.844 195.67 277.95 195.67C274.056 195.67 270.9 198.826 270.9 202.72C270.9 206.614 274.056 209.77 277.95 209.77Z"
            fill="white" />
        <path
            d="M308.15 208.82C312.044 208.82 315.2 205.664 315.2 201.77C315.2 197.876 312.044 194.72 308.15 194.72C304.256 194.72 301.1 197.876 301.1 201.77C301.1 205.664 304.256 208.82 308.15 208.82Z"
            fill="white" />
        <path
            d="M282.36 331.88C282.36 331.88 349.62 159.09 530.84 190.4C545.273 192.767 558.709 199.273 569.516 209.129C580.323 218.984 588.036 231.765 591.72 245.92C591.72 245.92 610.09 324.33 542.29 339.75C537.92 340.75 533.61 341.95 529.29 343.28C512.17 348.65 460.82 360 380.44 337C373.92 335.14 367.44 333.06 361.07 330.86C352.3 327.86 322.92 320 282.36 331.88Z"
            fill="#EDE0F5" />
        <path
            d="M727.43 366C727.43 366 565.51 392.89 542.24 261.73C542.24 261.73 514.33 154.73 617.62 135.22C617.62 135.22 687.62 119.13 701.86 222.75C703.756 237.085 704.202 251.575 703.19 266C701.84 286.25 702.3 331.1 727.43 366Z"
            fill="#DDC4EC" />
        <path
            d="M656.52 269.37C660.883 269.37 664.42 265.833 664.42 261.47C664.42 257.107 660.883 253.57 656.52 253.57C652.157 253.57 648.62 257.107 648.62 261.47C648.62 265.833 652.157 269.37 656.52 269.37Z"
            fill="white" />
        <path
            d="M625.22 269.63C629.583 269.63 633.12 266.093 633.12 261.73C633.12 257.367 629.583 253.83 625.22 253.83C620.857 253.83 617.32 257.367 617.32 261.73C617.32 266.093 620.857 269.63 625.22 269.63Z"
            fill="white" />
        <path
            d="M593.99 269.63C598.353 269.63 601.89 266.093 601.89 261.73C601.89 257.367 598.353 253.83 593.99 253.83C589.627 253.83 586.09 257.367 586.09 261.73C586.09 266.093 589.627 269.63 593.99 269.63Z"
            fill="white" />
        <path
            d="M398.58 469.3H429.51V501.6C429.51 503.635 429.108 505.649 428.328 507.528C427.548 509.407 426.405 511.113 424.964 512.55C423.523 513.986 421.813 515.124 419.932 515.898C418.05 516.672 416.034 517.067 414 517.06C409.9 517.06 405.967 515.431 403.068 512.532C400.169 509.633 398.54 505.7 398.54 501.6V469.3H398.58Z"
            fill="#723F24" />
        <path
            d="M255.59 459.57H284.39V493.68C284.39 497.499 282.873 501.162 280.172 503.862C277.472 506.563 273.809 508.08 269.99 508.08C266.171 508.08 262.508 506.563 259.807 503.862C257.107 501.162 255.59 497.499 255.59 493.68V459.57Z"
            fill="#723F24" />
        <path
            d="M281.75 479.38C297.877 479.38 310.95 463.419 310.95 443.73C310.95 424.041 297.877 408.08 281.75 408.08C265.623 408.08 252.55 424.041 252.55 443.73C252.55 463.419 265.623 479.38 281.75 479.38Z"
            fill="#723F24" />
        <path
            d="M280 398.31C285.92 400.08 299.39 399.94 303.26 399.77C304.222 399.743 305.175 399.578 306.09 399.28C308.759 398.25 311.155 396.618 313.09 394.51C313.659 395.233 314.062 396.073 314.27 396.97C315.312 400.696 314.993 404.671 313.369 408.182C311.745 411.693 308.923 414.511 305.41 416.13C295.72 420.47 283.46 416.65 283.46 416.65C283.46 416.65 282.72 437.44 282.46 444.57C282.35 446.868 282.894 449.15 284.03 451.15C288.71 459.09 298.03 452.58 300.52 450.61C301.155 450.084 301.88 449.678 302.66 449.41C303.677 449.091 304.752 449.006 305.806 449.16C306.861 449.314 307.867 449.704 308.75 450.3C314.29 454.97 297.14 458.55 297.14 458.55C298.66 461.81 308.75 459.55 308.75 459.55C312.98 464.55 310.49 478.43 310.49 478.43C307.67 491.89 290.3 480.38 290.3 480.38C269.26 469.08 273 450.63 273 450.63C276.69 423.71 265 427.4 265 427.4C254.8 427.83 265 461.7 265 461.7C265 461.7 257.19 465.39 252.63 463.22C252.63 463.22 227.45 440.22 244.38 410.9C244.3 410.9 256 391.15 280 398.31Z"
            fill="black" />
        <path
            d="M170.28 504L171.54 500.94C171.54 500.94 165.25 497.56 163.2 492.68C163.462 494.975 164.234 497.183 165.459 499.141C166.684 501.1 168.331 502.76 170.28 504Z"
            fill="#441E09" />
        <path
            d="M284.39 484.94V479.39C284.39 479.39 270.95 480.16 265.12 473.04C265.12 473 266.28 481.7 284.39 484.94Z"
            fill="#441E09" />
        <path
            d="M429.51 490.9V485.34C429.51 485.34 414.27 488.73 408.44 481.61C408.44 481.61 416.92 495.11 429.51 490.9Z"
            fill="#441E09" />
        <path
            d="M421.66 487.23C437.544 487.23 450.42 472.241 450.42 453.75C450.42 435.26 437.544 420.27 421.66 420.27C405.776 420.27 392.9 435.26 392.9 453.75C392.9 472.241 405.776 487.23 421.66 487.23Z"
            fill="#723F24" />
        <path
            d="M398.58 473.93C398.58 473.93 366 438.58 382.8 418.17C382.8 418.17 391.85 405.35 417.09 408.08C417.09 408.08 426.77 410.81 431.82 406.6C434.423 404.524 437.348 402.889 440.48 401.76C443.221 400.878 446.198 401.092 448.784 402.358C451.37 403.624 453.365 405.844 454.35 408.55C456.66 414.83 458.15 425.49 444.66 430.37C439.655 430.481 434.653 430.052 429.74 429.09C427.093 428.533 424.339 428.822 421.866 429.916C419.392 431.011 417.326 432.856 415.96 435.19C415.922 435.27 415.879 435.347 415.83 435.42C415.83 435.42 413.06 447.63 405.43 446.9C403.777 446.699 402.1 446.898 400.54 447.48C398.13 448.48 395.66 450.27 398.16 453.48C398.16 453.52 406.15 463.62 398.58 473.93Z"
            fill="black" />
        <path
            d="M676.1 498.05C676.1 498.05 675.61 494.26 674.19 492.35C674.19 492.35 681.77 490.73 689.74 474.63C689.488 479.336 688.12 483.915 685.748 487.987C683.376 492.06 680.069 495.509 676.1 498.05Z"
            fill="#441E09" />
        <path
            d="M700 460.26C700 464.08 697.79 467.18 695.07 467.18C694.193 467.168 693.347 466.857 692.67 466.3C690.44 481.62 680.57 493.18 668.74 493.18C655.26 493.18 644.34 478.18 644.34 459.7C644.34 441.22 655.26 426.22 668.74 426.22C680.09 426.22 689.62 436.84 692.35 451.22C692.477 451.834 692.818 452.384 693.313 452.77C693.807 453.156 694.423 453.355 695.05 453.33C697.82 453.34 700 456.43 700 460.26Z"
            fill="#723F24" />
        <path
            d="M715.51 445.2C715.51 445.2 716.1 472.66 699.15 472.73C698.744 472.73 698.342 472.648 697.969 472.489C697.595 472.33 697.258 472.096 696.977 471.802C696.697 471.509 696.479 471.161 696.337 470.781C696.195 470.401 696.131 469.996 696.15 469.59C696.38 467.151 697.167 464.797 698.45 462.71C699.251 461.295 699.54 459.648 699.269 458.045C698.998 456.442 698.182 454.982 696.96 453.91L696.85 453.81C696.85 453.81 691.06 455.94 685.2 445.2C685.2 445.2 681.2 436.33 673.31 442.59C673.31 442.59 661.92 455.29 640.59 443.25C640.59 443.25 627.08 433.15 640.59 424.52C640.59 424.52 649.06 422.57 651.01 417.85C651.01 417.85 662.73 390.17 689.59 407.43C689.59 407.43 694.97 385.12 710.76 398.8C710.76 398.8 712.39 401.08 717.11 399.13C717.11 399.13 737.11 395.52 729.81 426.22C729.84 426.22 727.72 439.34 715.51 445.2Z"
            fill="black" />
    </g>
    <defs>
        <clipPath id="clip0_350_250">
            <rect width="865.76" height="682.89" fill="white" />
        </clipPath>
    </defs>
</svg>
    