<svg width="866" height="683" viewBox="0 0 866 683" fill="none" xmlns="http://www.w3.org/2000/svg">
    <g opacity="0.5">
        <path
            d="M515 92.33C515 93.4673 514.663 94.579 514.031 95.5245C513.399 96.4701 512.501 97.2071 511.45 97.6423C510.4 98.0775 509.244 98.1914 508.128 97.9695C507.013 97.7477 505.988 97.2 505.184 96.3959C504.38 95.5917 503.832 94.5672 503.61 93.4518C503.389 92.3364 503.502 91.1803 503.938 90.1296C504.373 89.0789 505.11 88.1809 506.055 87.5491C507.001 86.9172 508.113 86.58 509.25 86.58C510.775 86.58 512.238 87.1858 513.316 88.2642C514.394 89.3425 515 90.805 515 92.33Z"
            fill="#D1D3D4" />
        <path
            d="M384.9 272.41C384.9 273.5 384.577 274.565 383.972 275.471C383.366 276.377 382.506 277.084 381.499 277.501C380.492 277.918 379.384 278.027 378.315 277.814C377.247 277.602 376.265 277.077 375.494 276.306C374.724 275.536 374.199 274.554 373.986 273.485C373.774 272.416 373.883 271.308 374.3 270.301C374.717 269.295 375.423 268.434 376.329 267.829C377.235 267.223 378.301 266.9 379.39 266.9C380.114 266.899 380.831 267.04 381.501 267.317C382.17 267.593 382.778 267.999 383.289 268.511C383.801 269.023 384.207 269.631 384.484 270.3C384.76 270.969 384.902 271.686 384.9 272.41Z"
            fill="#D1D3D4" />
        <path
            d="M608.72 496.303C612.406 495.709 614.914 492.241 614.321 488.555C613.727 484.869 610.259 482.361 606.573 482.954C602.887 483.547 600.379 487.016 600.972 490.702C601.565 494.388 605.034 496.896 608.72 496.303Z"
            fill="#D1D3D4" />
        <path
            d="M490 418.84C490 419.289 489.867 419.729 489.617 420.102C489.367 420.476 489.012 420.767 488.596 420.938C488.181 421.11 487.724 421.154 487.283 421.066C486.843 420.977 486.438 420.76 486.121 420.442C485.804 420.123 485.589 419.718 485.502 419.277C485.416 418.836 485.462 418.379 485.636 417.964C485.809 417.55 486.101 417.196 486.476 416.948C486.851 416.699 487.291 416.568 487.74 416.57C488.038 416.57 488.332 416.629 488.607 416.743C488.882 416.857 489.132 417.025 489.342 417.235C489.552 417.446 489.718 417.697 489.831 417.972C489.944 418.247 490.001 418.542 490 418.84Z"
            fill="#D1D3D4" />
        <path
            d="M584 644.27C584.002 644.719 583.87 645.159 583.622 645.534C583.374 645.908 583.02 646.201 582.606 646.374C582.191 646.548 581.734 646.594 581.293 646.508C580.852 646.421 580.447 646.206 580.128 645.889C579.81 645.572 579.593 645.167 579.504 644.727C579.416 644.286 579.46 643.829 579.632 643.414C579.803 642.998 580.094 642.643 580.468 642.393C580.841 642.143 581.281 642.01 581.73 642.01C582.33 642.01 582.906 642.248 583.332 642.671C583.757 643.095 583.997 643.67 584 644.27Z"
            fill="#D1D3D4" />
        <path
            d="M156.38 212.96C157.634 212.96 158.65 211.944 158.65 210.69C158.65 209.436 157.634 208.42 156.38 208.42C155.127 208.42 154.11 209.436 154.11 210.69C154.11 211.944 155.127 212.96 156.38 212.96Z"
            fill="#D1D3D4" />
        <path
            d="M586.29 149.89C586.29 150.339 586.157 150.779 585.907 151.152C585.657 151.526 585.302 151.817 584.886 151.988C584.471 152.16 584.014 152.204 583.573 152.116C583.133 152.027 582.728 151.81 582.411 151.492C582.094 151.173 581.879 150.768 581.792 150.327C581.706 149.886 581.752 149.429 581.926 149.014C582.099 148.6 582.391 148.246 582.766 147.998C583.141 147.749 583.581 147.618 584.03 147.62C584.328 147.62 584.622 147.679 584.897 147.793C585.172 147.907 585.422 148.075 585.632 148.285C585.842 148.496 586.008 148.747 586.121 149.022C586.234 149.297 586.291 149.592 586.29 149.89Z"
            fill="#D1D3D4" />
        <path
            d="M667.17 208.43C667.17 208.879 667.037 209.318 666.788 209.691C666.538 210.064 666.184 210.355 665.769 210.527C665.354 210.699 664.898 210.744 664.458 210.656C664.017 210.569 663.613 210.353 663.295 210.035C662.978 209.718 662.762 209.313 662.674 208.873C662.586 208.433 662.631 207.976 662.803 207.561C662.975 207.147 663.266 206.792 663.639 206.543C664.013 206.293 664.451 206.16 664.9 206.16C665.502 206.16 666.08 206.399 666.505 206.825C666.931 207.251 667.17 207.828 667.17 208.43Z"
            fill="#D1D3D4" />
        <path
            d="M429.8 166.91C429.802 167.359 429.671 167.799 429.423 168.174C429.174 168.548 428.82 168.841 428.406 169.014C427.991 169.188 427.535 169.234 427.094 169.148C426.653 169.061 426.247 168.846 425.929 168.529C425.61 168.212 425.393 167.807 425.305 167.367C425.216 166.926 425.261 166.469 425.432 166.054C425.604 165.638 425.895 165.283 426.268 165.033C426.642 164.783 427.081 164.65 427.53 164.65C428.131 164.65 428.706 164.888 429.132 165.311C429.557 165.735 429.798 166.31 429.8 166.91Z"
            fill="#D1D3D4" />
        <path
            d="M156.38 356.37C156.38 356.819 156.247 357.259 155.997 357.632C155.747 358.006 155.392 358.297 154.977 358.468C154.561 358.64 154.104 358.684 153.664 358.596C153.223 358.507 152.819 358.29 152.502 357.972C152.185 357.653 151.969 357.248 151.883 356.807C151.796 356.366 151.843 355.909 152.016 355.494C152.189 355.08 152.482 354.726 152.856 354.478C153.231 354.229 153.671 354.098 154.12 354.1C154.418 354.1 154.713 354.159 154.988 354.273C155.262 354.387 155.512 354.555 155.722 354.765C155.932 354.976 156.098 355.227 156.211 355.502C156.324 355.777 156.382 356.072 156.38 356.37Z"
            fill="#D1D3D4" />
        <path
            d="M407.68 527.58C407.68 528.939 407.277 530.267 406.522 531.397C405.767 532.527 404.694 533.407 403.439 533.927C402.184 534.447 400.802 534.583 399.47 534.318C398.137 534.053 396.913 533.399 395.952 532.438C394.991 531.477 394.337 530.253 394.072 528.92C393.807 527.588 393.943 526.206 394.463 524.951C394.983 523.696 395.863 522.623 396.993 521.868C398.123 521.113 399.451 520.71 400.81 520.71C402.631 520.713 404.377 521.437 405.665 522.725C406.953 524.013 407.677 525.759 407.68 527.58Z"
            fill="#D1D3D4" />
        <path
            d="M304.18 410.92C307.29 410.92 309.81 408.399 309.81 405.29C309.81 402.181 307.29 399.66 304.18 399.66C301.071 399.66 298.55 402.181 298.55 405.29C298.55 408.399 301.071 410.92 304.18 410.92Z"
            fill="#D1D3D4" />
        <path
            d="M330.36 603.65C333.469 603.65 335.99 601.129 335.99 598.02C335.99 594.911 333.469 592.39 330.36 592.39C327.251 592.39 324.73 594.911 324.73 598.02C324.73 601.129 327.251 603.65 330.36 603.65Z"
            fill="#D1D3D4" />
        <path
            d="M418.61 39.37C421.719 39.37 424.24 36.8494 424.24 33.74C424.24 30.6306 421.719 28.11 418.61 28.11C415.501 28.11 412.98 30.6306 412.98 33.74C412.98 36.8494 415.501 39.37 418.61 39.37Z"
            fill="#D1D3D4" />
        <path
            d="M195.17 92.33C195.57 95.3289 196.945 98.1131 199.082 100.254C201.22 102.395 204.002 103.775 207 104.18C204.006 104.584 201.228 105.959 199.091 108.094C196.954 110.229 195.576 113.007 195.17 116C194.767 112.996 193.388 110.208 191.245 108.065C189.102 105.922 186.314 104.543 183.31 104.14C186.312 103.738 189.099 102.36 191.242 100.219C193.385 98.0778 194.765 95.292 195.17 92.29V92.33Z"
            fill="#D1D3D4" />
        <path
            d="M73.0002 219.1C73.3938 222.113 74.7703 224.912 76.9163 227.064C79.0623 229.215 81.858 230.599 84.8702 231C81.8698 231.397 79.083 232.769 76.9384 234.905C74.7938 237.04 73.4101 239.821 73.0002 242.82C72.5933 239.825 71.2145 237.047 69.0756 234.911C66.9366 232.776 64.1557 231.402 61.1602 231C64.1675 230.594 66.9573 229.209 69.0976 227.057C71.238 224.906 72.6096 222.109 73.0002 219.1Z"
            fill="#D1D3D4" />
        <path
            d="M661.24 399.66C661.443 401.161 662.133 402.554 663.204 403.626C664.276 404.697 665.669 405.387 667.17 405.59C665.669 405.789 664.275 406.477 663.204 407.547C662.132 408.617 661.442 410.009 661.24 411.51C661.037 410.01 660.346 408.618 659.275 407.549C658.203 406.479 656.81 405.791 655.31 405.59C656.811 405.385 658.203 404.695 659.274 403.624C660.345 402.553 661.035 401.161 661.24 399.66Z"
            fill="#D1D3D4" />
        <path
            d="M515 556.92C515.202 558.419 515.89 559.811 516.96 560.88C518.029 561.95 519.421 562.639 520.92 562.84C519.421 563.045 518.03 563.736 516.961 564.807C515.892 565.878 515.203 567.27 515 568.77C514.796 567.269 514.105 565.877 513.034 564.806C511.963 563.735 510.571 563.045 509.07 562.84C510.571 562.639 511.964 561.951 513.035 560.881C514.106 559.812 514.797 558.42 515 556.92Z"
            fill="#D1D3D4" />
        <path
            d="M244.72 331.36C244.919 332.861 245.607 334.255 246.677 335.327C247.747 336.398 249.139 337.088 250.64 337.29C249.139 337.492 247.747 338.182 246.677 339.253C245.607 340.325 244.919 341.719 244.72 343.22C244.519 341.718 243.829 340.324 242.757 339.253C241.686 338.181 240.292 337.491 238.79 337.29C240.292 337.089 241.686 336.399 242.757 335.327C243.829 334.256 244.519 332.862 244.72 331.36Z"
            fill="#D1D3D4" />
        <path
            d="M655.31 80.65C655.512 82.1519 656.201 83.5459 657.273 84.6174C658.344 85.689 659.738 86.3785 661.24 86.58C659.738 86.7798 658.343 87.4689 657.271 88.5407C656.199 89.6125 655.51 91.0075 655.31 92.51C655.111 91.0075 654.421 89.6125 653.35 88.5407C652.278 87.4689 650.883 86.7798 649.38 86.58C650.882 86.3785 652.276 85.689 653.348 84.6174C654.419 83.5459 655.109 82.1519 655.31 80.65Z"
            fill="#D1D3D4" />
        <path
            d="M460.27 323.11C460.478 324.605 461.171 325.991 462.242 327.055C463.313 328.119 464.704 328.802 466.2 329C464.698 329.2 463.303 329.889 462.231 330.961C461.159 332.033 460.47 333.427 460.27 334.93C460.069 333.428 459.379 332.034 458.308 330.963C457.236 329.891 455.842 329.201 454.34 329C455.842 328.799 457.236 328.109 458.308 327.037C459.379 325.966 460.069 324.572 460.27 323.07V323.11Z"
            fill="#D1D3D4" />
        <path
            d="M270.65 502.3C270.852 503.799 271.54 505.191 272.61 506.26C273.679 507.33 275.071 508.019 276.57 508.22C275.07 508.423 273.678 509.114 272.609 510.185C271.539 511.257 270.851 512.65 270.65 514.15C270.446 512.649 269.755 511.257 268.684 510.186C267.613 509.115 266.221 508.425 264.72 508.22C266.22 508.017 267.612 507.329 268.683 506.26C269.754 505.19 270.445 503.799 270.65 502.3Z"
            fill="#D1D3D4" />
    </g>
    <path
        d="M578.46 489.46V557.05H302.46C298.017 557.05 293.618 556.175 289.514 554.475C285.409 552.775 281.68 550.283 278.538 547.141C275.397 544 272.905 540.271 271.205 536.166C269.505 532.062 268.63 527.663 268.63 523.22C268.63 504.54 284.05 488.48 302.73 488.48L578.46 489.46Z"
        fill="#E6E7E8" />
    <path
        d="M272.18 519.45C272.18 519.45 275.75 484.7 316.18 489.45H578.46V482.31L309.28 481.43C309.28 481.43 273.76 482.53 272.18 519.45Z"
        fill="#D1D3D4" />
    <path
        d="M309.55 482.32H578.46C579.848 482.32 581.179 481.769 582.162 480.789C583.144 479.808 583.697 478.478 583.7 477.09C583.697 475.701 583.144 474.37 582.162 473.388C581.18 472.406 579.849 471.853 578.46 471.85H308.36C295.799 471.85 283.753 476.84 274.871 485.721C265.99 494.603 261 506.649 261 519.21C261 531.771 265.99 543.817 274.871 552.699C283.753 561.58 295.799 566.57 308.36 566.57H578C579.262 566.57 580.473 566.068 581.366 565.176C582.259 564.283 582.76 563.072 582.76 561.81C582.76 560.548 582.259 559.337 581.366 558.444C580.473 557.551 579.262 557.05 578 557.05H309.55C304.623 557.05 299.745 556.076 295.196 554.184C290.647 552.291 286.517 549.518 283.044 546.023C279.571 542.529 276.823 538.382 274.958 533.822C273.094 529.261 272.15 524.377 272.18 519.45C272.246 509.581 276.212 500.139 283.213 493.183C290.214 486.227 299.681 482.322 309.55 482.32Z"
        fill="#2F2E41" />
    <path
        d="M252.28 410.19V463.58L529.28 464.23C529.28 464.23 557.94 465.31 560.07 434.44C560.07 434.44 552.26 410.89 531.97 410.98L252.28 410.19Z"
        fill="#E6E7E8" />
    <path opacity="0.2"
        d="M526.69 464.14C526.69 464.14 543.01 460.89 545.78 450.59L550.5 456.92C550.5 456.92 542.16 465.32 526.69 464.14Z"
        fill="black" />
    <path
        d="M252.28 410.19V401.48H529.84C537.235 401.39 544.471 403.633 550.52 407.89C557.24 412.78 563.18 421.02 560.02 434.44C560.02 434.44 552.91 411.78 531.92 410.98L252.28 410.19Z"
        fill="#D1D3D4" />
    <path
        d="M245.06 395.17L529.81 394.94C534.942 394.936 540.024 395.943 544.767 397.905C549.509 399.866 553.819 402.742 557.449 406.37C561.079 409.997 563.959 414.305 565.924 419.045C567.889 423.786 568.9 428.868 568.9 434C568.9 444.36 564.785 454.296 557.46 461.623C550.135 468.95 540.2 473.067 529.84 473.07H244.94C243.703 473.07 242.517 472.579 241.641 471.706C240.766 470.832 240.272 469.647 240.27 468.41C240.27 467.171 240.762 465.984 241.638 465.108C242.513 464.232 243.701 463.74 244.94 463.74H530.72C538.491 463.74 545.943 460.653 551.438 455.158C556.933 449.663 560.02 442.211 560.02 434.44C560.02 430.591 559.261 426.779 557.788 423.223C556.314 419.667 554.154 416.436 551.431 413.715C548.708 410.994 545.476 408.836 541.919 407.365C538.361 405.893 534.549 405.137 530.7 405.14L245.06 405.33C244.385 405.33 243.717 405.196 243.095 404.935C242.472 404.674 241.908 404.292 241.436 403.81C240.963 403.329 240.59 402.758 240.34 402.132C240.09 401.505 239.968 400.835 239.98 400.16C240.003 398.828 240.549 397.559 241.499 396.626C242.449 395.693 243.728 395.17 245.06 395.17Z"
        fill="#BCBEC0" />
    <path d="M308.74 421.34V454.5L327.29 447.79L345.45 454.89V421.34H308.74Z" fill="#BCBEC0" />
    <mask id="mask0_350_101" style="mask-type:luminance" maskUnits="userSpaceOnUse" x="308" y="421"
        width="38" height="34">
        <path d="M308.74 421.34V454.5L327.29 447.79L345.45 454.89V421.34H308.74Z" fill="white" />
    </mask>
    <g mask="url(#mask0_350_101)">
        <path opacity="0.2"
            d="M308.75 444.42C308.75 444.42 323.75 426.86 345.47 427.65V421.34H308.74L308.75 444.42Z"
            fill="black" />
    </g>
    <path
        d="M252.28 581.92V635.3L529.28 635.95C529.28 635.95 557.89 637 560 606.17C560 606.17 552.19 582.61 531.9 582.71L252.28 581.92Z"
        fill="#E6E7E8" />
    <path
        d="M251.27 584.44V575.73H528.83C536.227 575.639 543.465 577.886 549.51 582.15C556.23 587.03 562.17 595.27 559.01 608.69C559.01 608.69 551.9 586.03 530.91 585.24L251.27 584.44Z"
        fill="#D1D3D4" />
    <path
        d="M245.06 566.9L529.81 566.66C534.942 566.657 540.025 567.666 544.767 569.628C549.51 571.591 553.819 574.468 557.449 578.096C561.08 581.725 563.959 586.032 565.924 590.774C567.889 595.515 568.9 600.598 568.9 605.73C568.9 616.089 564.785 626.024 557.459 633.35C550.134 640.675 540.199 644.79 529.84 644.79H244.94C244.327 644.791 243.72 644.672 243.153 644.438C242.587 644.205 242.072 643.862 241.638 643.429C241.204 642.996 240.86 642.482 240.625 641.916C240.391 641.35 240.27 640.743 240.27 640.13C240.27 639.517 240.391 638.91 240.625 638.344C240.86 637.778 241.204 637.264 241.638 636.831C242.072 636.399 242.587 636.055 243.153 635.822C243.72 635.588 244.327 635.469 244.94 635.47H530.72C538.491 635.47 545.943 632.383 551.438 626.888C556.933 621.393 560.02 613.941 560.02 606.17C560.02 602.321 559.261 598.509 557.788 594.953C556.314 591.397 554.154 588.166 551.431 585.445C548.708 582.724 545.476 580.566 541.919 579.095C538.361 577.623 534.549 576.867 530.7 576.87L245.06 577.05C244.385 577.05 243.717 576.916 243.095 576.655C242.472 576.394 241.908 576.012 241.436 575.53C240.963 575.049 240.59 574.478 240.34 573.852C240.09 573.225 239.968 572.555 239.98 571.88C240.006 570.55 240.553 569.284 241.503 568.352C242.452 567.421 243.73 566.9 245.06 566.9Z"
        fill="#97FCB5" />
    <path d="M308.74 593.06V626.22L327.29 619.51L345.45 626.62V593.06H308.74Z" fill="#97FCB5" />
    <path opacity="0.2"
        d="M308.75 616.14C308.75 616.14 323.75 598.59 345.47 599.38V593.06H308.74L308.75 616.14Z"
        fill="black" />
    <path
        d="M446.8 202.68C443.07 209.68 444.29 216.98 445.37 220.74C446.481 224.545 446.917 228.515 446.66 232.47C445.66 246.47 436.79 248.03 436.79 248.03C434.444 246.97 432.016 246.1 429.53 245.43L414.26 240.1C413.71 239.88 414.02 239.55 414.02 239.55L416.55 233.63C418.935 233.583 421.285 233.041 423.45 232.04L423.69 231.93C426.847 230.481 429.667 228.39 431.97 225.79C432.23 225.52 432.49 225.25 432.73 224.95C436.335 220.757 439.056 215.88 440.73 210.61C440.73 210.47 440.82 210.34 440.86 210.2C445.2 197.01 441.32 186.94 441.32 186.94L441.22 187.03C425.59 201.73 404.35 196.79 404.35 196.79L401.35 199.58L399.61 201.2L387.61 236.11L373.83 304.82C350.16 318.82 332.27 307.09 332.27 307.09C322.88 302.98 318.67 294.46 316.86 288.9C316.1 286.431 315.669 283.872 315.58 281.29C314.97 268.49 306.35 264.09 306.35 264.09C290.3 254.01 292.77 240.22 292.77 240.22C292.39 229.11 299.29 223.42 304.68 220.69C307.19 219.486 309.861 218.651 312.61 218.21C321.21 216.66 325.77 207.61 327.87 201.67C328.755 199.065 329.296 196.355 329.48 193.61C330.83 176.27 346.48 165.15 357.57 165.74C360.812 165.994 364.053 165.242 366.852 163.586C369.651 161.931 371.871 159.453 373.21 156.49C382.06 143.94 401.6 149.07 401.6 149.07C408.8 152.58 413.74 151.14 413.74 151.14C437.81 147.64 443.98 166.77 443.98 166.77C445.45 173.77 446.63 176.43 447.35 177.46C448.166 178.608 448.797 179.877 449.22 181.22C453.28 194.42 446.8 202.68 446.8 202.68Z"
        fill="#2F2E41" />
    <path
        d="M416.67 233.34C418.997 233.394 421.308 232.95 423.45 232.04C421.285 233.041 418.935 233.583 416.55 233.63L416.67 233.34Z"
        fill="#FCBAEB" stroke="#351D66" stroke-width="0.5" stroke-miterlimit="10" />
    <path
        d="M440.76 210.61C439.169 215.552 436.666 220.151 433.38 224.17C434.181 223.194 434.916 222.165 435.58 221.09C437.829 217.714 439.615 214.051 440.89 210.2C440.85 210.34 440.8 210.47 440.76 210.61Z"
        fill="#FCBAEB" stroke="#351D66" stroke-width="0.5" stroke-miterlimit="10" />
    <path d="M432.73 225C432.95 224.75 433.16 224.48 433.38 224.22L432.73 225Z" fill="#FCBAEB"
        stroke="#351D66" stroke-width="0.5" stroke-miterlimit="10" />
    <path
        d="M428.65 245C428.65 245 447.24 248.47 448.18 263.28L450.7 321.57C455.216 321.223 459.562 319.703 463.31 317.16C463.31 317.16 463.62 324.72 469.61 327.24C469.61 327.24 460.16 339.53 450.07 340.48L432.74 331.34L430.85 315.27L437.16 266.74L428.65 245Z"
        fill="#723F24" />
    <path
        d="M373.5 241.85C373.5 241.85 358.69 241.85 354.28 251.93C354.28 251.93 350.82 273.99 367.52 318.1L380.12 356.86C380.12 356.86 425.12 345.29 452.28 342.37C447.91 338.03 442.906 334.378 437.44 331.54C436.759 331.201 436.219 330.634 435.912 329.938C435.606 329.242 435.552 328.461 435.76 327.73C438.137 319.644 439.711 311.344 440.46 302.95C440.521 302.112 440.755 301.295 441.148 300.551C441.54 299.808 442.082 299.154 442.74 298.63C446.74 295.36 454.63 286.93 447.87 274.63C447.87 274.63 441.37 264.52 439.31 257.56C438.24 253.913 436.273 250.592 433.59 247.9C432.03 246.35 430.3 245.12 428.65 245.01L373.5 241.85Z"
        fill="#97FCB5" />
    <mask id="mask1_350_101" style="mask-type:luminance" maskUnits="userSpaceOnUse" x="353" y="241"
        width="100" height="116">
        <path
            d="M373.5 241.85C373.5 241.85 358.69 241.85 354.28 251.93C354.28 251.93 350.82 273.99 367.52 318.1L380.12 356.86C380.12 356.86 425.12 345.29 452.28 342.37C447.91 338.03 442.906 334.378 437.44 331.54C436.759 331.201 436.219 330.634 435.912 329.938C435.606 329.242 435.552 328.461 435.76 327.73C438.137 319.644 439.711 311.344 440.46 302.95C440.521 302.112 440.755 301.295 441.148 300.551C441.54 299.808 442.082 299.154 442.74 298.63C446.74 295.36 454.63 286.93 447.87 274.63C447.87 274.63 441.37 264.52 439.31 257.56C438.24 253.913 436.273 250.592 433.59 247.9C432.03 246.35 430.3 245.12 428.65 245.01L373.5 241.85Z"
            fill="white" />
    </mask>
    <g mask="url(#mask1_350_101)">
        <path opacity="0.2"
            d="M441.25 300.14C441.25 300.14 428.33 290.06 406.59 303.29C406.59 303.29 423.29 304.87 437.79 321.57L440.45 303C440.466 301.994 440.741 301.008 441.25 300.14Z"
            fill="white" stroke="white" stroke-miterlimit="10" />
    </g>
    <path
        d="M354.28 251.93C354.28 251.93 363.42 236.81 372.56 252.56C372.56 252.56 382.64 272.1 371.61 287.56L319.31 381.15L312.06 392.8C312.06 392.8 309.54 396.59 303.55 395.96L269.21 395.32C268.15 395.47 267.073 395.2 266.209 394.566C265.346 393.933 264.765 392.986 264.59 391.93C264.563 391.762 264.572 391.591 264.615 391.427C264.659 391.263 264.737 391.11 264.843 390.978C264.95 390.846 265.083 390.738 265.234 390.661C265.385 390.584 265.551 390.539 265.72 390.53L280.32 389.73C281.305 389.677 282.274 389.451 283.18 389.06L300.3 381.73C301.432 381.246 302.456 380.542 303.314 379.66C304.172 378.778 304.847 377.734 305.3 376.59L354.28 251.93Z"
        fill="#723F24" />
    <path
        d="M455.31 393.91C455.31 393.91 479.02 403.57 489.89 413.56C491.039 414.616 491.854 415.986 492.234 417.5C492.614 419.014 492.543 420.606 492.03 422.08C490.15 427.56 488.25 438.9 494.14 456.97L505.53 486.17C505.53 486.17 510.2 480.04 528.59 479.46L522.75 416.1L503.48 362.1L455.31 393.91Z"
        fill="#2F2E41" />
    <path opacity="0.2"
        d="M455.31 393.91C455.31 393.91 479.02 403.57 489.89 413.56C491.039 414.616 491.854 415.986 492.234 417.5C492.614 419.014 492.543 420.606 492.03 422.08C490.15 427.56 488.25 438.9 494.14 456.97L505.53 486.17C505.53 486.17 510.2 480.04 528.59 479.46L522.75 416.1L503.48 362.1L455.31 393.91Z"
        fill="black" />
    <path
        d="M505.53 486.17L515.83 514.79C516.9 520.714 519.064 526.388 522.21 531.52C522.21 531.52 528.59 541.69 533.59 545.66C533.59 545.66 539.45 543.24 544.11 544.45C544.11 544.45 536.82 526.67 532.7 517.24C532.032 515.717 531.617 514.096 531.47 512.44L528.59 479.44C528.59 479.44 514.53 478.41 505.53 486.17Z"
        fill="#723F24" />
    <path
        d="M505.9 263.3L528.39 256.13C528.412 256.124 528.435 256.124 528.457 256.132C528.479 256.139 528.497 256.153 528.511 256.172C528.524 256.191 528.531 256.213 528.531 256.236C528.531 256.259 528.523 256.281 528.51 256.3L494.65 300.18L475.65 305.95L505.9 263.3Z"
        fill="#2F2E41" />
    <path d="M435.61 293.4L433.62 292.74L470.17 249.07L505.9 263.3L470.17 251.39L435.61 293.4Z"
        fill="#E6E7E8" />
    <path
        d="M515.24 513.47C515.24 513.47 506.24 524.64 511.12 531.89C513.012 534.017 515.455 535.578 518.18 536.4C518.18 536.4 524.25 539.93 528.37 548.55C528.37 548.55 530.72 554.23 538.76 554.23L553.07 553.45C553.07 553.45 554.16 548.19 544.07 544.45C544.07 544.45 540.34 542.96 533.55 545.66C533.55 545.66 517.95 531.21 515.79 514.79L515.24 513.47Z"
        fill="#97FCB5" />
    <path
        d="M399.16 201L386.85 236.71C386.664 237.259 386.342 237.751 385.913 238.141C385.485 238.532 384.964 238.806 384.4 238.94L373 241.65C373 241.65 401.68 283.56 421.53 281.35C421.53 281.35 439.18 280.09 428.15 244.8L413.76 239.9C413.706 239.882 413.656 239.854 413.614 239.816C413.572 239.778 413.538 239.732 413.514 239.68C413.491 239.628 413.478 239.572 413.477 239.515C413.477 239.459 413.488 239.402 413.51 239.35L416.17 233.14L400.1 201.63L399.16 201Z"
        fill="#723F24" />
    <mask id="mask2_350_101" style="mask-type:luminance" maskUnits="userSpaceOnUse" x="373" y="201"
        width="60" height="81">
        <path
            d="M399.66 201.2L387.35 236.91C387.164 237.459 386.842 237.951 386.413 238.341C385.985 238.732 385.464 239.006 384.9 239.14L373.5 241.85C373.5 241.85 402.18 283.76 422.03 281.55C422.03 281.55 439.68 280.29 428.65 245L414.26 240.1C414.206 240.082 414.156 240.054 414.114 240.016C414.072 239.978 414.038 239.932 414.014 239.88C413.991 239.828 413.978 239.772 413.977 239.715C413.977 239.659 413.988 239.602 414.01 239.55L416.67 233.34L400.6 201.83L399.66 201.2Z"
            fill="white" />
    </mask>
    <g mask="url(#mask2_350_101)">
        <path
            d="M400.61 218.62C400.61 218.62 404.72 234.31 416.5 233.62L414.26 240.1C414.26 240.1 399 237.55 400.61 218.62Z"
            fill="#441E09" />
    </g>
    <path
        d="M440.89 210.2C440.89 210.34 440.8 210.47 440.76 210.61C439.169 215.552 436.666 220.151 433.38 224.17L432.73 224.95C432.49 225.25 432.23 225.52 431.97 225.79C429.632 228.352 426.821 230.437 423.69 231.93L423.45 232.04C421.285 233.041 418.935 233.583 416.55 233.63C414.981 233.663 413.419 233.426 411.93 232.93C401.59 229.54 397.05 214.83 401.4 199.58L404.4 196.79C404.4 196.79 425.64 201.73 441.27 187.03C443.51 193.49 443.55 201.81 440.89 210.2Z"
        fill="#723F24" />
    <path
        d="M398.87 204.67C401.913 204.67 404.38 201.142 404.38 196.79C404.38 192.438 401.913 188.91 398.87 188.91C395.827 188.91 393.36 192.438 393.36 196.79C393.36 201.142 395.827 204.67 398.87 204.67Z"
        fill="#723F24" />
    <path
        d="M380.12 356.86C380.12 356.86 377.35 404.13 417.64 402.96C417.64 402.96 453.81 406.96 501.4 372.3C501.568 372.179 501.768 372.11 501.975 372.101C502.181 372.093 502.386 372.145 502.564 372.251C502.741 372.357 502.884 372.513 502.974 372.7C503.064 372.886 503.097 373.095 503.07 373.3C501.9 379.5 501.07 395.3 516.91 412.3L532.39 431C532.39 431 536.18 421.07 551.95 419L523.33 342.39C522.976 341.44 522.361 340.608 521.557 339.991C520.752 339.374 519.79 338.996 518.78 338.9C510.71 338.14 488.27 336.98 452.28 342.35C452.28 342.37 426.69 344.93 380.12 356.86Z"
        fill="#2F2E41" />
    <path
        d="M532.39 431L549.99 456.7C550.402 457.3 550.679 457.982 550.8 458.7C550.95 459.7 551.58 461.38 553.8 463.7C553.8 463.7 559.75 474.64 578.41 483.28C580.766 480.93 583.891 479.51 587.21 479.28C587.21 479.28 570.67 460.28 566.28 452.44L552 419C552 419 538 420.2 532.39 431Z"
        fill="#723F24" />
    <path
        d="M550.82 458.21C550.82 458.13 550.74 458.11 550.7 458.21C549.84 460.14 545.07 471.71 551.7 477.08C551.7 477.08 552.39 477.76 560.32 479.49C560.32 479.49 564.81 479.14 575.32 488.11C575.32 488.11 577.57 492.42 586.19 490.35L598.6 485.18C598.6 485.18 597.96 479.73 587.16 479.26C583.852 479.511 580.74 480.928 578.38 483.26C578.38 483.26 561.63 475.96 553.91 463.79C552.335 462.289 551.257 460.342 550.82 458.21Z"
        fill="#97FCB5" />
    <path
        d="M470.17 251.39L505.9 263.3L475.77 305.78C475.727 305.834 475.669 305.875 475.604 305.898C475.538 305.921 475.468 305.925 475.4 305.91L434.28 295.05L470.17 251.39Z"
        fill="#2F2E41" />
    <path
        d="M463.31 317.16C463.832 314.056 465.068 311.115 466.92 308.57C466.92 308.57 459.37 297.57 462.13 293.36C462.212 293.242 462.321 293.146 462.449 293.08C462.576 293.014 462.717 292.979 462.86 292.979C463.004 292.979 463.145 293.014 463.272 293.08C463.399 293.146 463.508 293.242 463.59 293.36L471.93 305L472.76 304.58C472.76 304.58 463.92 295.08 466.67 289.93C466.809 289.707 467 289.521 467.227 289.389C467.453 289.257 467.709 289.182 467.971 289.171C468.233 289.16 468.494 289.214 468.731 289.327C468.968 289.44 469.174 289.609 469.33 289.82L478.33 301.51C478.358 301.545 478.394 301.571 478.436 301.587C478.477 301.603 478.522 301.608 478.566 301.601C478.609 301.594 478.651 301.575 478.685 301.547C478.719 301.518 478.745 301.482 478.76 301.44L481.03 295.09C481.464 293.879 481.526 292.567 481.21 291.32C480.6 288.86 479.88 284.54 481.84 282.72C481.949 282.616 482.082 282.542 482.227 282.504C482.373 282.467 482.526 282.468 482.671 282.507C482.816 282.547 482.948 282.623 483.055 282.728C483.162 282.834 483.239 282.965 483.28 283.11L485.82 292.17C486.155 293.326 486.155 294.554 485.82 295.71L482.92 305.54C482.689 306.291 482.353 307.004 481.92 307.66L469.59 327.22C469.59 327.22 463.45 325.54 463.31 317.16Z"
        fill="#723F24" />
    <path
        d="M753.38 469.45L748.38 450.66C747.863 448.76 746.856 447.029 745.46 445.641C744.064 444.253 742.327 443.256 740.425 442.749C738.522 442.243 736.52 442.245 734.618 442.756C732.717 443.267 730.983 444.268 729.59 445.66C728.198 447.052 727.196 448.785 726.685 450.686C726.174 452.587 726.171 454.589 726.678 456.491C727.184 458.393 728.182 460.129 729.57 461.524C730.959 462.919 732.69 463.925 734.59 464.44L753.38 469.45Z"
        fill="#D1D3D4" />
    <path opacity="0.1"
        d="M744.51 460.57L742.29 452.29C742.053 451.458 741.605 450.702 740.989 450.096C740.373 449.489 739.61 449.053 738.774 448.829C737.939 448.606 737.06 448.602 736.224 448.82C735.387 449.037 734.621 449.468 734 450.07C733.4 450.691 732.972 451.456 732.756 452.292C732.54 453.127 732.544 454.005 732.767 454.838C732.991 455.672 733.426 456.433 734.031 457.049C734.636 457.664 735.39 458.112 736.22 458.35L744.51 460.57Z"
        fill="black" />
    <path
        d="M724.3 458.3L742.3 440.3C741.982 439.48 741.597 438.687 741.15 437.93C730.54 420.12 713.68 398.81 696.44 381.57C669.63 354.76 649.75 345.64 634.92 345.91C633.602 345.936 632.345 346.471 631.413 347.403C630.48 348.335 629.945 349.592 629.92 350.91C629.64 365.75 638.77 385.63 665.57 412.43C682.82 429.68 704.12 446.53 721.94 457.14C722.692 457.594 723.481 457.982 724.3 458.3Z"
        fill="#EDE0F5" />
    <path
        d="M637.54 365.51C640.085 360.292 644.312 356.083 649.54 353.56C651.733 352.62 653.94 351.78 656.16 351.04C648.16 347.32 641.1 345.81 634.94 345.92C633.622 345.946 632.365 346.481 631.433 347.413C630.501 348.345 629.966 349.602 629.94 350.92C629.82 357.08 631.34 364.12 635.05 372.15C635.77 369.92 636.6 367.71 637.54 365.51Z"
        fill="#BCBEC0" />
    <path opacity="0.1"
        d="M728.74 453.86L737.84 444.75C737.42 444.08 736.93 443.39 736.39 442.68C721.596 423.927 705.705 406.065 688.8 389.19C662 362.39 644.8 350.61 633.67 347.19C631.67 346.55 630.5 347.67 631.14 349.71C634.59 360.82 646.37 378.05 673.14 404.85C690.015 421.755 707.877 437.646 726.63 452.44C727.37 453 728.06 453.43 728.74 453.86Z"
        fill="black" />
    <path d="M695.03 432.09L694.65 476.82L706.67 473.44L716.04 450.88L695.03 432.09Z" fill="#BCBEC0" />
    <path d="M717.02 410.1L761.75 409.72L758.37 421.74L735.81 431.11L717.02 410.1Z" fill="#BCBEC0" />
    <path d="M742.234 440.369L724.302 458.302L727.42 461.42L745.352 443.488L742.234 440.369Z"
        fill="#BCBEC0" />
    <path opacity="0.05"
        d="M737.913 444.69L728.622 453.981L731.74 457.1L741.032 447.808L737.913 444.69Z"
        fill="black" />
    <path
        d="M669.34 400.91C677.928 400.91 684.89 393.948 684.89 385.36C684.89 376.772 677.928 369.81 669.34 369.81C660.752 369.81 653.79 376.772 653.79 385.36C653.79 393.948 660.752 400.91 669.34 400.91Z"
        fill="#BCBEC0" />
    <path opacity="0.1"
        d="M669.34 398.89C676.812 398.89 682.87 392.832 682.87 385.36C682.87 377.888 676.812 371.83 669.34 371.83C661.868 371.83 655.81 377.888 655.81 385.36C655.81 392.832 661.868 398.89 669.34 398.89Z"
        fill="black" />
    <path
        d="M669.34 397.1C675.824 397.1 681.08 391.844 681.08 385.36C681.08 378.876 675.824 373.62 669.34 373.62C662.856 373.62 657.6 378.876 657.6 385.36C657.6 391.844 662.856 397.1 669.34 397.1Z"
        fill="#E6E7E8" />
    <path opacity="0.1"
        d="M661 377.06C659.482 378.577 658.41 380.481 657.901 382.566C657.391 384.65 657.464 386.834 658.11 388.88C658.431 386.216 659.656 383.743 661.579 381.873C663.503 380.003 666.01 378.849 668.682 378.603C671.353 378.358 674.028 379.035 676.261 380.523C678.493 382.011 680.148 384.22 680.95 386.78C681.264 384.343 680.804 381.87 679.637 379.708C678.47 377.546 676.653 375.806 674.443 374.732C672.234 373.658 669.743 373.305 667.322 373.723C664.901 374.141 662.672 375.308 660.95 377.06H661Z"
        fill="black" />
    <path
        d="M663.51 393.12C664.995 393.12 666.2 391.916 666.2 390.43C666.2 388.944 664.995 387.74 663.51 387.74C662.024 387.74 660.82 388.944 660.82 390.43C660.82 391.916 662.024 393.12 663.51 393.12Z"
        fill="white" />
    <path
        d="M668 393.21C668.227 393.437 668.354 393.744 668.354 394.065C668.354 394.386 668.227 394.693 668 394.92C667.889 395.032 667.756 395.121 667.61 395.181C667.464 395.242 667.308 395.273 667.15 395.273C666.992 395.273 666.836 395.242 666.69 395.181C666.544 395.121 666.412 395.032 666.3 394.92C666.073 394.693 665.946 394.386 665.946 394.065C665.946 393.744 666.073 393.437 666.3 393.21C666.412 393.098 666.544 393.009 666.69 392.949C666.836 392.888 666.992 392.857 667.15 392.857C667.308 392.857 667.464 392.888 667.61 392.949C667.756 393.009 667.889 393.098 668 393.21Z"
        fill="white" />
    <path
        d="M235.041 142.752C240.567 119.338 226.066 95.877 202.652 90.3507C179.238 84.8245 155.777 99.3255 150.251 122.74C144.725 146.154 159.226 169.615 182.64 175.141C206.054 180.667 229.515 166.166 235.041 142.752Z"
        fill="#EDE0F5" />
    <g style="mix-blend-mode:multiply" opacity="0.2">
        <path
            d="M213.24 143.79C217.6 142.4 222.24 142.1 226.51 140.39C230.092 138.797 233.368 136.59 236.19 133.87C236.19 133.5 236.19 133.13 236.19 132.75C236.198 127.069 235.086 121.442 232.92 116.19C232.47 117.82 232.11 119.5 231.67 121.12C229.67 128.7 225.32 136.31 218.07 139.28C212.55 141.54 206.34 140.77 200.37 140.77C193.19 140.77 185.89 142 179.48 145.25C173.07 148.5 167.59 153.9 165.1 160.64C164.534 162.188 164.108 163.785 163.83 165.41C164.497 165.977 165.163 166.527 165.83 167.06C168.055 162.526 171.317 158.58 175.35 155.54C182.42 150.18 191.35 147.63 200.18 147.02C195.069 149.806 190.737 153.828 187.58 158.719C184.424 163.611 182.543 169.215 182.11 175.02C183.05 175.247 184 175.447 184.96 175.62C185.32 174.82 185.7 174.04 186.08 173.27C189.08 167.1 192.38 160.98 196.74 155.68C201.1 150.38 206.69 145.88 213.24 143.79Z"
            fill="black" />
        <path
            d="M235.72 139.32C231.08 143.6 225.42 146.6 220.16 150.1C214.9 153.6 209.78 157.94 207.28 163.77C205.913 167.154 205.256 170.782 205.35 174.43C206.017 174.23 206.683 174.01 207.35 173.77C209.208 168.44 212.604 163.78 217.11 160.38C221.063 157.449 225.615 155.428 230.44 154.46C233.127 149.786 234.918 144.651 235.72 139.32Z"
            fill="black" />
        <path
            d="M152.32 149.2C154.6 140.13 158.17 130.79 165.62 125.2C170.12 121.81 175.68 120.07 181.26 119.2C186.84 118.33 192.49 118.35 198.12 118.06C200.683 118.015 203.232 117.659 205.71 117C208.632 116.046 211.347 114.546 213.71 112.58C217.599 109.598 220.674 105.685 222.65 101.2C217.619 96.4335 211.524 92.9366 204.87 91C203.557 94.1456 201.625 96.9954 199.19 99.38C196.973 101.422 194.506 103.176 191.85 104.6C180.38 111.09 166.85 114.98 158.34 125.05C154.306 130.053 151.494 135.929 150.13 142.21C150.664 144.597 151.396 146.935 152.32 149.2Z"
            fill="black" />
        <path
            d="M214.75 119.88C213.567 121.037 212.219 122.011 210.75 122.77C208.775 123.552 206.689 124.014 204.57 124.14C200.72 124.57 196.86 125.05 193.06 125.82C188.029 126.665 183.212 128.486 178.88 131.18C174.65 134.01 171.2 138.27 170.2 143.25C171.08 140.09 173.81 137.82 176.54 136C180.32 133.47 184.54 131.34 189.11 131.14C195.11 130.88 200.69 133.95 206.63 134.46C210.358 134.731 214.091 134.002 217.444 132.347C220.796 130.693 223.646 128.174 225.7 125.05C228.02 121.42 229.38 116.9 231.7 113.41C229.838 109.664 227.447 106.205 224.6 103.14C224.048 106.8 222.681 110.289 220.6 113.35C218.927 115.76 216.962 117.953 214.75 119.88Z"
            fill="black" />
    </g>
    <path opacity="0.1"
        d="M212.54 159.74C204.705 159.742 197.015 157.629 190.281 153.626C183.547 149.622 178.017 143.875 174.276 136.992C170.535 130.108 168.72 122.343 169.024 114.514C169.327 106.685 171.737 99.0834 176 92.51C169.689 95.1207 164.08 99.1788 159.626 104.357C155.173 109.535 151.999 115.687 150.361 122.318C148.724 128.948 148.668 135.871 150.199 142.527C151.73 149.183 154.805 155.385 159.175 160.634C163.545 165.883 169.088 170.03 175.356 172.742C181.625 175.453 188.443 176.653 195.261 176.244C202.078 175.835 208.704 173.828 214.603 170.386C220.502 166.944 225.509 162.164 229.22 156.43C223.932 158.621 218.264 159.746 212.54 159.74Z"
        fill="black" />
    <path
        d="M673.337 159.987C691.396 156.013 702.814 138.153 698.84 120.094C694.866 102.036 677.006 90.618 658.947 94.5917C640.889 98.5654 629.471 116.426 633.445 134.484C637.418 152.543 655.279 163.961 673.337 159.987Z"
        fill="#EDE0F5" />
    <path opacity="0.1"
        d="M653.63 123.6C651.404 119.692 649.99 115.374 649.475 110.906C648.959 106.438 649.352 101.912 650.63 97.6C650.28 97.78 649.93 97.92 649.63 98.12C644.858 100.823 640.824 104.657 637.881 109.285C634.938 113.913 633.177 119.193 632.753 124.661C632.328 130.128 633.254 135.617 635.448 140.643C637.642 145.669 641.037 150.08 645.334 153.487C649.632 156.894 654.701 159.193 660.095 160.182C665.489 161.171 671.044 160.819 676.271 159.158C681.498 157.498 686.236 154.578 690.071 150.657C693.905 146.736 696.717 141.933 698.26 136.67C690.578 140.703 681.63 141.594 673.303 139.156C664.977 136.717 657.923 131.14 653.63 123.6Z"
        fill="black" />
    <g style="mix-blend-mode:screen" opacity="0.6">
        <path
            d="M687.49 101.45C688.906 102.62 690.221 103.908 691.42 105.3C722.18 89 745 79 746.45 81.63C748.38 85.02 713.99 108.19 669.63 133.39C625.27 158.59 587.76 176.26 585.83 172.87C584.34 170.25 604.58 155.79 634.34 137.72C633.767 135.975 633.339 134.185 633.06 132.37C585.82 160.75 552.75 185.07 555.58 190.05C558.93 195.94 611.14 172.6 672.2 137.91C733.26 103.22 780.05 70.33 776.71 64.44C773.88 59.46 736.05 75.41 687.49 101.45Z"
            fill="#D1D3D4" />
    </g>
    <g style="mix-blend-mode:screen">
        <path
            d="M136.88 434.77C190.374 434.77 233.74 391.404 233.74 337.91C233.74 284.416 190.374 241.05 136.88 241.05C83.3857 241.05 40.02 284.416 40.02 337.91C40.02 391.404 83.3857 434.77 136.88 434.77Z"
            fill="#E6E7E8" />
    </g>
    <path
        d="M136.88 390.13C165.72 390.13 189.1 366.75 189.1 337.91C189.1 309.07 165.72 285.69 136.88 285.69C108.04 285.69 84.6602 309.07 84.6602 337.91C84.6602 366.75 108.04 390.13 136.88 390.13Z"
        fill="#EDE0F5" />
    <g style="mix-blend-mode:multiply" opacity="0.1">
        <path
            d="M138.45 362.16C134.91 365.58 132.45 369.89 129.37 373.77C125.671 378.5 121.214 382.585 116.18 385.86C119.873 387.456 123.739 388.617 127.7 389.32C130.47 384.16 132.11 378.42 134.87 373.24C137.93 367.48 143.04 362.11 149.54 361.57C156.66 360.96 162.8 366.18 168.03 371.05C169.67 372.58 171.31 374.13 172.89 375.73C176.604 372.197 179.778 368.137 182.31 363.68C181.58 363.06 180.85 362.46 180.12 361.89C168.15 352.61 149.34 351.64 138.45 362.16Z"
            fill="black" />
        <path
            d="M100.77 306.16C110.77 307.16 120.07 311.29 129.31 315.16C138.55 319.03 148.17 322.72 158.18 322.66C167.268 322.508 176.04 319.299 183.08 313.55C181.43 310.431 179.47 307.487 177.23 304.76C174.461 307.055 171.277 308.797 167.85 309.89C158.01 312.99 147.33 310.58 137.54 307.34C127.75 304.1 118 300 107.7 299.69C105.42 299.633 103.138 299.766 100.88 300.09C98.9515 301.917 97.1694 303.893 95.5503 306C97.2919 305.933 99.0361 305.986 100.77 306.16Z"
            fill="black" />
        <path
            d="M162.27 352.5C169.76 353.9 177.14 357.45 184.47 359.45C186.214 355.587 187.483 351.528 188.25 347.36C178.89 348.76 169.37 347.22 159.91 346.96C144.103 346.541 128.407 349.711 114 356.23C112.62 356.86 111 358.18 111.68 359.53C112.25 360.66 113.87 360.53 115.1 360.25C130.72 356.42 146.46 349.56 162.27 352.5Z"
            fill="black" />
        <path
            d="M117.74 289.31C119.16 289.94 120.55 290.63 121.91 291.36C126.8 293.98 131.39 297.2 136.51 299.36C146.11 303.36 156.84 303.36 167.24 303.21C169.649 303.323 172.057 302.984 174.34 302.21L174.8 302.01C167.637 294.449 158.378 289.201 148.212 286.938C138.045 284.675 127.434 285.501 117.74 289.31Z"
            fill="black" />
        <path
            d="M185.45 318.68C182.752 321.601 179.564 324.027 176.03 325.85C166.58 330.72 155.36 331.34 144.94 329.27C134.52 327.2 124.76 322.61 115.46 317.47C109.33 314.08 102.08 310.33 95.7002 313.22C91.9102 314.94 89.3802 318.79 88.4702 322.85C87.7209 326.959 87.9331 331.186 89.0902 335.2C90.5702 341.13 93.5102 347.28 99.0902 349.88C106.83 353.51 115.64 348.83 123.54 345.55C135.588 340.553 148.716 338.728 161.67 340.25C169.67 341.2 178.04 343.42 185.67 340.85C186.846 340.448 187.986 339.95 189.08 339.36C189.08 338.88 189.08 338.36 189.08 337.91C189.092 331.329 187.86 324.804 185.45 318.68ZM114.24 340.16C112.03 341.388 109.548 342.045 107.02 342.07C104.56 342.21 101.86 342.01 100.02 340.34C99.2393 339.573 98.6293 338.649 98.2302 337.63C96.5302 333.63 96.1602 326.52 99.7602 323.38C100.337 322.887 100.998 322.501 101.71 322.24C105.37 320.89 110.28 322.67 113 324.87C114.517 326.264 115.715 327.97 116.51 329.87C117.228 331.121 117.681 332.506 117.84 333.94C117.84 335.202 117.506 336.441 116.874 337.533C116.242 338.625 115.334 339.531 114.24 340.16Z"
            fill="black" />
    </g>
</svg>
    