<svg width="1082" height="725" viewBox="0 0 1082 725" fill="none" xmlns="http://www.w3.org/2000/svg">
    <g clip-path="url(#clip0_339_997)">
        <g opacity="0.2">
            <path
                d="M374.55 666.42C375.093 668.648 375.816 670.828 376.71 672.94C390.61 667.48 404.663 662.247 418.87 657.24C418.75 656.65 418.63 656.03 418.48 655.42C417.049 649.129 413.994 643.323 409.62 638.58C403.94 632.58 396.62 629.68 389.5 631.45C382.38 633.22 377.21 639.28 374.85 647.25C373.086 653.505 372.982 660.113 374.55 666.42Z"
                fill="#3F3D56" />
            <path
                d="M394.522 654.491C406.725 651.765 413.661 636.321 410.015 619.994C406.368 603.668 393.52 592.642 381.317 595.367C369.114 598.093 362.177 613.538 365.824 629.864C369.47 646.19 382.319 657.216 394.522 654.491Z"
                fill="#3F3D56" />
            <path
                d="M385.958 618.475C398.161 615.749 405.098 600.305 401.451 583.978C397.805 567.652 384.956 556.626 372.753 559.351C360.55 562.077 353.614 577.522 357.26 593.848C360.907 610.174 373.755 621.2 385.958 618.475Z"
                fill="#3F3D56" />
            <path
                d="M377.378 582.481C389.581 579.755 396.517 564.31 392.871 547.984C389.224 531.658 376.376 520.632 364.173 523.357C351.97 526.083 345.033 541.527 348.68 557.854C352.326 574.18 365.175 585.206 377.378 582.481Z"
                fill="#3F3D56" />
            <path
                d="M368.797 546.476C381 543.751 387.937 528.306 384.29 511.98C380.644 495.653 367.795 484.628 355.592 487.353C343.389 490.079 336.453 505.523 340.099 521.85C343.745 538.176 356.594 549.202 368.797 546.476Z"
                fill="#3F3D56" />
            <path
                d="M385.74 249.94C387.82 245.273 389.578 240.468 391 235.56L331 240.28L393.54 225.15C396.528 209.423 396.15 193.241 392.43 177.67C389.168 163.886 383.322 150.845 375.2 139.24L302 204.69L365.37 127.22C339.5 99.6 300.37 86.46 261.48 96.22C203.37 110.75 167.76 170.79 181.94 230.32C187.576 254.365 201.089 275.836 220.33 291.32C217.097 298.588 214.64 306.177 213 313.96L297.42 335.1L211 327.61C209.966 339.676 210.871 351.83 213.68 363.61C219.326 387.654 232.841 409.123 252.08 424.61C241.969 447.312 239.635 472.716 245.44 496.88C259.62 556.41 318.22 592.88 376.33 578.36C434.44 563.84 470.05 503.8 455.87 444.27C450.223 420.226 436.708 398.757 417.47 383.27C427.58 360.568 429.914 335.164 424.11 311C418.489 286.937 404.983 265.444 385.74 249.94Z"
                fill="#9E1FF1" />
            <path opacity="0.1"
                d="M213.7 363.57C219.346 387.614 232.861 409.083 252.1 424.57C241.989 447.272 239.655 472.676 245.46 496.84C259.64 556.37 318.24 592.84 376.35 578.32C434.46 563.8 470.07 503.76 455.89 444.23C450.243 420.186 436.728 398.717 417.49 383.23C427.23 361.37 210.82 351.5 213.7 363.57Z"
                fill="black" />
        </g>
        <g opacity="0.2">
            <path
                d="M644.24 655.43C643.876 658.033 643.732 660.663 643.81 663.29C661.243 663.57 678.743 664.157 696.31 665.05C696.43 664.36 696.55 663.66 696.65 662.95C697.783 655.618 696.937 648.116 694.2 641.22C690.58 632.4 683.83 626.09 675.38 624.87C666.93 623.65 658.69 627.81 652.74 635.23C648.158 641.086 645.224 648.06 644.24 655.43Z"
                fill="#3F3D56" />
            <path
                d="M702.717 621.055C705.441 602.107 695.914 585.061 681.438 582.98C666.962 580.899 653.019 594.572 650.296 613.519C647.572 632.467 657.099 649.514 671.575 651.594C686.051 653.675 699.993 640.002 702.717 621.055Z"
                fill="#3F3D56" />
            <path
                d="M708.741 579.12C711.465 560.173 701.938 543.126 687.462 541.045C672.987 538.964 659.044 552.637 656.32 571.585C653.597 590.532 663.124 607.579 677.599 609.66C692.075 611.741 706.018 598.068 708.741 579.12Z"
                fill="#3F3D56" />
            <path
                d="M714.765 537.195C717.488 518.248 707.962 501.201 693.486 499.12C679.01 497.04 665.067 510.713 662.344 529.66C659.62 548.608 669.147 565.654 683.623 567.735C698.098 569.816 712.041 556.143 714.765 537.195Z"
                fill="#3F3D56" />
            <path
                d="M720.799 495.262C723.523 476.315 713.996 459.268 699.52 457.187C685.044 455.106 671.101 468.78 668.378 487.727C665.654 506.674 675.181 523.721 689.657 525.802C704.133 527.883 718.075 514.21 720.799 495.262Z"
                fill="#3F3D56" />
            <path
                d="M833.9 218.62C838.139 214.569 842.089 210.225 845.72 205.62L778.49 184.5L852.88 195.75C862.256 181.232 868.572 164.953 871.441 147.91C874.311 130.867 873.674 113.418 869.57 96.6301L762.21 134.07L864.09 79.5701C857.601 63.411 847.854 48.7612 835.456 36.5335C823.058 24.3057 808.276 14.7619 792.029 8.49658C775.781 2.23128 758.418 -0.621281 741.021 0.116617C723.623 0.854514 706.564 5.16706 690.905 12.7856C675.247 20.4041 661.325 31.1654 650.008 44.399C638.69 57.6326 630.218 73.0551 625.121 89.7056C620.023 106.356 618.409 123.878 620.379 141.179C622.349 158.481 627.86 175.191 636.57 190.27C629.984 196.564 624.093 203.547 619 211.1L701.71 270.38L611 224.7C601.458 243.519 596.758 264.421 597.328 285.513C597.897 306.605 603.716 327.223 614.26 345.5C597.034 361.923 584.778 382.862 578.891 405.922C573.005 428.983 573.726 453.234 580.973 475.904C588.22 498.574 601.7 518.747 619.871 534.117C638.043 549.486 660.172 559.433 683.73 562.819C707.288 566.204 731.323 562.893 753.088 553.262C774.852 543.632 793.467 528.071 806.805 508.36C820.143 488.649 827.665 465.582 828.511 441.797C829.357 418.012 823.493 394.469 811.59 373.86C832.176 354.233 845.568 328.256 849.614 300.101C853.66 271.947 848.126 243.25 833.9 218.62Z"
                fill="#9E1FF1" />
            <path opacity="0.1"
                d="M598.55 264.02C594.461 292.174 599.997 320.884 614.26 345.5C597.034 361.923 584.778 382.862 578.891 405.922C573.005 428.983 573.726 453.234 580.973 475.904C588.22 498.574 601.7 518.747 619.871 534.117C638.043 549.486 660.172 559.433 683.73 562.819C707.288 566.204 731.323 562.893 753.088 553.262C774.852 543.632 793.467 528.071 806.805 508.36C820.143 488.649 827.665 465.582 828.511 441.797C829.357 418.012 823.493 394.469 811.59 373.86C831.49 354.91 600.58 249.93 598.55 264.02Z"
                fill="black" />
        </g>
        <path opacity="0.1"
            d="M541 725C839.786 725 1082 711.121 1082 694C1082 676.879 839.786 663 541 663C242.214 663 0 676.879 0 694C0 711.121 242.214 725 541 725Z"
            fill="#9E1FF1" />
        <path
            d="M894.7 681.51C908.673 681.51 920 679.33 920 676.64C920 673.95 908.673 671.77 894.7 671.77C880.727 671.77 869.4 673.95 869.4 676.64C869.4 679.33 880.727 681.51 894.7 681.51Z"
            fill="#6C63FF" />
        <path
            d="M894.28 678.44C895.909 678.44 897.23 676.712 897.23 674.58C897.23 672.448 895.909 670.72 894.28 670.72C892.651 670.72 891.33 672.448 891.33 674.58C891.33 676.712 892.651 678.44 894.28 678.44Z"
            fill="#3F3D56" />
        <path
            d="M894.28 673.72C895.909 673.72 897.23 671.992 897.23 669.86C897.23 667.728 895.909 666 894.28 666C892.651 666 891.33 667.728 891.33 669.86C891.33 671.992 892.651 673.72 894.28 673.72Z"
            fill="#3F3D56" />
        <path
            d="M894.28 669.01C895.909 669.01 897.23 667.282 897.23 665.15C897.23 663.018 895.909 661.29 894.28 661.29C892.651 661.29 891.33 663.018 891.33 665.15C891.33 667.282 892.651 669.01 894.28 669.01Z"
            fill="#3F3D56" />
        <path
            d="M894.28 664.3C895.909 664.3 897.23 662.572 897.23 660.44C897.23 658.308 895.909 656.58 894.28 656.58C892.651 656.58 891.33 658.308 891.33 660.44C891.33 662.572 892.651 664.3 894.28 664.3Z"
            fill="#3F3D56" />
        <path
            d="M894.28 659.58C895.909 659.58 897.23 657.852 897.23 655.72C897.23 653.588 895.909 651.86 894.28 651.86C892.651 651.86 891.33 653.588 891.33 655.72C891.33 657.852 892.651 659.58 894.28 659.58Z"
            fill="#3F3D56" />
        <path
            d="M894.28 654.87C895.909 654.87 897.23 653.142 897.23 651.01C897.23 648.878 895.909 647.15 894.28 647.15C892.651 647.15 891.33 648.878 891.33 651.01C891.33 653.142 892.651 654.87 894.28 654.87Z"
            fill="#3F3D56" />
        <path
            d="M894.28 650.16C895.909 650.16 897.23 648.432 897.23 646.3C897.23 644.168 895.909 642.44 894.28 642.44C892.651 642.44 891.33 644.168 891.33 646.3C891.33 648.432 892.651 650.16 894.28 650.16Z"
            fill="#3F3D56" />
        <path
            d="M905.3 614.05C905.705 613.537 906.073 612.996 906.4 612.43L898.66 611.16L907.03 611.22C907.831 609.472 908.269 607.58 908.315 605.658C908.362 603.736 908.016 601.824 907.3 600.04L896.07 605.87L906.43 598.25C905.463 596.564 904.159 595.095 902.599 593.936C901.038 592.777 899.255 591.953 897.362 591.515C895.468 591.077 893.504 591.035 891.594 591.391C889.683 591.747 887.866 592.493 886.257 593.584C884.648 594.674 883.282 596.085 882.243 597.728C881.205 599.371 880.517 601.211 880.223 603.132C879.928 605.054 880.033 607.015 880.532 608.893C881.03 610.772 881.911 612.528 883.12 614.05C882.494 614.848 881.955 615.709 881.51 616.62L891.51 621.84L880.8 618.24C880.049 620.468 879.869 622.849 880.274 625.165C880.679 627.481 881.657 629.659 883.12 631.5C881.483 633.581 880.464 636.081 880.181 638.714C879.897 641.347 880.361 644.006 881.518 646.388C882.674 648.77 884.478 650.778 886.723 652.184C888.967 653.589 891.562 654.334 894.21 654.334C896.858 654.334 899.452 653.589 901.697 652.184C903.941 650.778 905.745 648.77 906.902 646.388C908.059 644.006 908.522 641.347 908.239 638.714C907.955 636.081 906.937 633.581 905.3 631.5C907.256 629.014 908.32 625.943 908.32 622.78C908.32 619.617 907.256 616.546 905.3 614.06V614.05Z"
            fill="#9E1FF1" />
        <path opacity="0.1"
            d="M880.1 622.77C880.091 625.931 881.147 629.004 883.1 631.49C881.463 633.571 880.444 636.071 880.161 638.704C879.878 641.337 880.341 643.996 881.498 646.378C882.655 648.76 884.459 650.768 886.703 652.174C888.947 653.579 891.542 654.324 894.19 654.324C896.838 654.324 899.433 653.579 901.677 652.174C903.922 650.768 905.725 648.76 906.882 646.378C908.039 643.996 908.502 641.337 908.219 638.704C907.936 636.071 906.917 633.571 905.28 631.49C907.19 629.09 880.1 621.19 880.1 622.77Z"
            fill="black" />
        <path
            d="M313.7 720.68C332.367 720.68 347.5 717.77 347.5 714.18C347.5 710.59 332.367 707.68 313.7 707.68C295.033 707.68 279.9 710.59 279.9 714.18C279.9 717.77 295.033 720.68 313.7 720.68Z"
            fill="#6C63FF" />
        <path
            d="M313.13 716.57C315.306 716.57 317.07 714.264 317.07 711.42C317.07 708.576 315.306 706.27 313.13 706.27C310.954 706.27 309.19 708.576 309.19 711.42C309.19 714.264 310.954 716.57 313.13 716.57Z"
            fill="#3F3D56" />
        <path
            d="M313.13 710.27C315.306 710.27 317.07 707.964 317.07 705.12C317.07 702.276 315.306 699.97 313.13 699.97C310.954 699.97 309.19 702.276 309.19 705.12C309.19 707.964 310.954 710.27 313.13 710.27Z"
            fill="#3F3D56" />
        <path
            d="M313.13 703.97C315.306 703.97 317.07 701.664 317.07 698.82C317.07 695.976 315.306 693.67 313.13 693.67C310.954 693.67 309.19 695.976 309.19 698.82C309.19 701.664 310.954 703.97 313.13 703.97Z"
            fill="#3F3D56" />
        <path
            d="M313.13 697.68C315.306 697.68 317.07 695.374 317.07 692.53C317.07 689.686 315.306 687.38 313.13 687.38C310.954 687.38 309.19 689.686 309.19 692.53C309.19 695.374 310.954 697.68 313.13 697.68Z"
            fill="#3F3D56" />
        <path
            d="M313.13 691.38C315.306 691.38 317.07 689.074 317.07 686.23C317.07 683.386 315.306 681.08 313.13 681.08C310.954 681.08 309.19 683.386 309.19 686.23C309.19 689.074 310.954 691.38 313.13 691.38Z"
            fill="#3F3D56" />
        <path
            d="M313.13 685.08C315.306 685.08 317.07 682.774 317.07 679.93C317.07 677.086 315.306 674.78 313.13 674.78C310.954 674.78 309.19 677.086 309.19 679.93C309.19 682.774 310.954 685.08 313.13 685.08Z"
            fill="#3F3D56" />
        <path
            d="M313.13 678.79C315.306 678.79 317.07 676.484 317.07 673.64C317.07 670.796 315.306 668.49 313.13 668.49C310.954 668.49 309.19 670.796 309.19 673.64C309.19 676.484 310.954 678.79 313.13 678.79Z"
            fill="#3F3D56" />
        <path
            d="M327.87 630.55C328.403 629.863 328.891 629.141 329.33 628.39L319 626.69L330.18 626.78C331.256 624.446 331.843 621.916 331.905 619.347C331.967 616.778 331.502 614.223 330.54 611.84L315.54 619.62L329.37 609.5C328.068 607.27 326.322 605.332 324.241 603.805C322.159 602.278 319.786 601.195 317.268 600.623C314.75 600.051 312.142 600.002 309.605 600.48C307.067 600.957 304.655 601.951 302.518 603.399C300.381 604.848 298.563 606.719 297.179 608.899C295.795 611.078 294.874 613.519 294.472 616.069C294.07 618.62 294.196 621.225 294.842 623.725C295.489 626.224 296.642 628.564 298.23 630.6C297.395 631.668 296.674 632.821 296.08 634.04L309.51 641.04L295.19 636.24C294.183 639.208 293.929 642.379 294.453 645.469C294.977 648.559 296.261 651.47 298.19 653.94C296.004 656.721 294.645 660.06 294.268 663.577C293.89 667.094 294.51 670.646 296.056 673.827C297.602 677.008 300.011 679.69 303.009 681.567C306.008 683.443 309.473 684.439 313.01 684.439C316.547 684.439 320.013 683.443 323.011 681.567C326.009 679.69 328.419 677.008 329.964 673.827C331.51 670.646 332.13 667.094 331.753 663.577C331.375 660.06 330.016 656.721 327.83 653.94C330.441 650.616 331.86 646.512 331.86 642.285C331.86 638.058 330.441 633.954 327.83 630.63L327.87 630.55Z"
            fill="#9E1FF1" />
        <path opacity="0.1"
            d="M294.2 642.2C294.187 646.425 295.596 650.532 298.2 653.86C296.014 656.641 294.655 659.98 294.278 663.497C293.9 667.014 294.52 670.566 296.066 673.747C297.611 676.928 300.021 679.611 303.019 681.487C306.017 683.363 309.483 684.359 313.02 684.359C316.557 684.359 320.022 683.363 323.021 681.487C326.019 679.611 328.428 676.928 329.974 673.747C331.52 670.566 332.14 667.014 331.762 663.497C331.385 659.98 330.026 656.641 327.84 653.86C330.39 650.65 294.2 640.09 294.2 642.2Z"
            fill="black" />
        <path
            d="M491.66 427.93C489.11 414.59 486.26 401.22 485.79 387.65C485.51 379.65 486.07 371.51 485.04 363.53C484.53 359.61 483.64 355.76 482.76 351.91L479.22 336.5C479.622 333.546 479.506 330.545 478.88 327.63C478.526 326.093 478.054 324.585 477.47 323.12C480.775 318.469 483.498 313.432 485.58 308.12C486.52 305.72 487.33 303.17 486.96 300.63C486.24 295.76 481.52 292.55 477.13 290.15C474.47 288.7 471.67 287.3 468.63 287.07C466.504 286.984 464.387 287.391 462.445 288.258C460.502 289.126 458.786 290.43 457.43 292.07C456.691 288.128 456.939 284.064 458.15 280.24C455.54 279.07 452.91 277.97 450.26 276.9C449.877 273.444 449.743 269.965 449.86 266.49C449.92 262.32 449.99 258.11 450.23 253.93C457.342 251.335 463.489 246.626 467.847 240.436C472.205 234.245 474.565 226.87 474.61 219.3C474.61 218.87 474.61 218.45 474.61 218.03C476.548 214.546 477.774 210.711 478.217 206.749C478.66 202.787 478.311 198.776 477.19 194.95C474.26 184.95 466.6 176.71 457.37 171.62C448.14 166.53 437.44 164.38 426.85 164C423.296 163.792 419.73 164.017 416.23 164.67C412.484 165.592 408.855 166.934 405.41 168.67C400.12 171.11 394.79 173.78 390.83 177.99C383.96 185.32 382.42 196.09 383.17 205.99C384.17 218.99 388.51 231.57 393.53 243.67C395.2 247.67 396.98 251.73 399.73 255.14C401.86 257.77 405.56 257.93 408.5 256.09C408.267 259.284 408.193 262.488 408.28 265.69C402.85 265.5 397.56 266.39 393.2 269.45C391.2 270.88 389.3 273.13 389.74 275.55C391.076 275.586 392.356 276.092 393.355 276.979C394.354 277.866 395.007 279.078 395.2 280.4C395.42 282.53 394.35 284.56 393.31 286.4C392.86 287.22 392.41 288.05 391.95 288.87C387.65 293.47 383.24 299.23 382.85 304.94C382.149 305.007 381.451 305.11 380.76 305.25C376.86 305.97 372.98 307.3 369.15 308.3L341.43 315.6L334.58 317.5L323.58 320.4C316.58 322.24 309.45 324.13 303.24 327.83C297.03 331.53 291.76 337.34 290.51 344.34C289.89 347.82 290.27 351.44 289.51 354.89C289.51 355.05 289.45 355.2 289.41 355.35C288.775 357.534 287.921 359.648 286.86 361.66C280.65 374.75 276.23 389.02 277.06 403.43C277.57 412.28 280.06 420.91 282.48 429.43C285.02 438.143 287.527 446.857 290 455.57C291.631 461.808 293.7 467.923 296.19 473.87C300.457 483.397 306.786 491.857 314.72 498.64C316.947 500.637 319.437 502.319 322.12 503.64C326.212 505.409 330.679 506.134 335.12 505.75C336.32 505.67 337.5 505.54 338.67 505.35C347.26 503.99 355.27 499.85 362.62 495.19C365.693 493.243 368.693 491.193 371.62 489.04C371.992 492.399 372.661 495.719 373.62 498.96C374.27 501.19 375.07 503.48 374.81 505.79C374.45 509.01 372.11 511.65 370.9 514.67C368.33 521.05 370.97 528.16 371.4 535C371.81 541.41 370.25 547.77 369 554.08C366.913 564.603 365.679 575.278 365.31 586C365.299 590.06 365.032 594.114 364.51 598.14C363.58 603.82 361.4 609.3 361.02 615.04C360.44 623.98 364.3 632.73 363.95 641.68C363.54 652.19 357.37 662.4 359.52 672.68C359.79 673.97 360.52 675.46 361.7 675.79L361.12 676.32C359.35 677.96 357.63 680.99 359.64 682.32C360.103 682.595 360.617 682.772 361.15 682.84C364.26 683.49 367.39 684.08 370.52 684.63C370.451 687.521 370.815 690.407 371.6 693.19C372.17 693.6 372.75 693.97 373.33 694.32C372.89 695.5 372.92 696.64 373.96 697.32C374.423 697.595 374.937 697.772 375.47 697.84C401.23 703.155 427.537 705.337 453.82 704.34C458.52 704.16 463.43 703.82 467.44 701.42C471.45 699.02 474.16 693.91 472.25 689.7C470.56 685.98 466.14 684.37 462.17 683.13L457.51 681.69C458.107 680.632 458.455 679.451 458.528 678.239C458.601 677.026 458.396 675.812 457.93 674.69C456.24 670.97 451.82 669.36 447.85 668.12L437.12 664.79C435.708 664.455 434.38 663.832 433.22 662.96C432.452 662.196 431.743 661.373 431.1 660.5C429.552 658.73 427.518 657.454 425.25 656.83C425.13 654.556 425.18 652.276 425.4 650.01L428.4 613.8C429.07 605.6 429.73 597.24 427.82 589.23C427.05 585.98 425.82 582.65 426.57 579.39C427.74 574.07 433.34 571.11 437.16 567.16C442.92 561.16 444.71 552.63 446.03 544.51C451.496 511.002 453.214 476.989 451.15 443.1C463.155 439.716 475.51 437.729 487.97 437.18C490.09 437.09 491.13 436.09 491.79 434.11C492.45 432.13 492.05 429.98 491.66 427.93ZM431.81 429.7C431.88 429.35 431.96 429 432.02 428.65L432.85 429.71L431.81 429.7Z"
            fill="url(#paint0_linear_339_997)" />
        <path
            d="M412.31 246.15C412.05 249.63 410.82 252.97 410.37 256.44C409.86 260.26 410.31 264.15 410.06 268C409.81 271.85 408.7 275.9 405.77 278.41C422.8 279.885 439.574 283.514 455.69 289.21C450.82 283.21 450.69 274.83 450.81 267.13C450.97 255.74 451.17 244.13 454.89 233.38C443.795 230.9 432.306 230.75 421.15 232.94C418.73 233.42 411.4 233.12 410.31 235.38C409.52 237.04 412.49 243.63 412.31 246.15Z"
            fill="#A1616A" />
        <path opacity="0.1"
            d="M412.31 246.15C412.05 249.63 410.82 252.97 410.37 256.44C409.86 260.26 410.31 264.15 410.06 268C409.81 271.85 408.7 275.9 405.77 278.41C422.8 279.885 439.574 283.514 455.69 289.21C450.82 283.21 450.69 274.83 450.81 267.13C450.97 255.74 451.17 244.13 454.89 233.38C443.795 230.9 432.306 230.75 421.15 232.94C418.73 233.42 411.4 233.12 410.31 235.38C409.52 237.04 412.49 243.63 412.31 246.15Z"
            fill="black" />
        <path
            d="M432.47 660.55C433.071 661.437 433.739 662.276 434.47 663.06C435.596 663.933 436.895 664.557 438.28 664.89L448.76 668.22C452.65 669.46 456.97 671.06 458.62 674.78C460.48 678.98 457.83 684.09 453.91 686.48C449.99 688.87 445.19 689.22 440.6 689.4C414.9 690.39 389.176 688.21 364.01 682.91C363.491 682.835 362.991 682.658 362.54 682.39C360.54 681.04 362.25 678.02 363.98 676.39C370.73 669.99 378.07 663.28 387.26 661.8C392.09 661.01 396.94 661.33 401.74 660.18C405.19 659.35 408.45 657.92 411.89 657.07C418.3 655.5 427.89 654.94 432.47 660.55Z"
            fill="#46455B" />
        <path opacity="0.1"
            d="M432.47 660.55C433.071 661.437 433.739 662.276 434.47 663.06C435.596 663.933 436.895 664.557 438.28 664.89L448.76 668.22C452.65 669.46 456.97 671.06 458.62 674.78C460.48 678.98 457.83 684.09 453.91 686.48C449.99 688.87 445.19 689.22 440.6 689.4C414.9 690.39 389.176 688.21 364.01 682.91C363.491 682.835 362.991 682.658 362.54 682.39C360.54 681.04 362.25 678.02 363.98 676.39C370.73 669.99 378.07 663.28 387.26 661.8C392.09 661.01 396.94 661.33 401.74 660.18C405.19 659.35 408.45 657.92 411.89 657.07C418.3 655.5 427.89 654.94 432.47 660.55Z"
            fill="black" />
        <path
            d="M379.85 434.37C374.679 448.016 374.361 463.027 378.95 476.88C375.46 476.5 373.95 481.22 374.04 484.74C374.164 489.64 374.907 494.506 376.25 499.22C376.89 501.46 377.67 503.74 377.42 506.04C377.06 509.26 374.78 511.9 373.59 514.91C371.09 521.28 373.66 528.38 374.09 535.21C374.49 541.62 372.96 547.97 371.73 554.27C369.692 564.782 368.489 575.438 368.13 586.14C368.123 590.196 367.859 594.247 367.34 598.27C366.44 603.95 364.34 609.42 363.94 615.15C363.37 624.07 367.14 632.82 366.8 641.76C366.4 652.25 360.36 662.45 362.47 672.76C362.77 674.21 363.58 675.92 365.07 675.94C380.15 676.13 394.24 671.94 409.16 674.13C410.68 639.61 412.16 604.93 418.96 571.04C424.96 540.87 435.13 511.04 434.18 480.28C433.63 462.69 429.45 445.44 426.91 428.02C410.967 424.48 394.284 426.731 379.85 434.37Z"
            fill="#BBBDC8" />
        <path opacity="0.1"
            d="M379.85 434.37C374.679 448.016 374.361 463.027 378.95 476.88C375.46 476.5 373.95 481.22 374.04 484.74C374.164 489.64 374.907 494.506 376.25 499.22C376.89 501.46 377.67 503.74 377.42 506.04C377.06 509.26 374.78 511.9 373.59 514.91C371.09 521.28 373.66 528.38 374.09 535.21C374.49 541.62 372.96 547.97 371.73 554.27C369.692 564.782 368.489 575.438 368.13 586.14C368.123 590.196 367.859 594.247 367.34 598.27C366.44 603.95 364.34 609.42 363.94 615.15C363.37 624.07 367.14 632.82 366.8 641.76C366.4 652.25 360.36 662.45 362.47 672.76C362.77 674.21 363.58 675.92 365.07 675.94C380.15 676.13 394.24 671.94 409.16 674.13C410.68 639.61 412.16 604.93 418.96 571.04C424.96 540.87 435.13 511.04 434.18 480.28C433.63 462.69 429.45 445.44 426.91 428.02C410.967 424.48 394.284 426.731 379.85 434.37Z"
            fill="black" />
        <path
            d="M446.47 675.55C447.071 676.437 447.739 677.276 448.47 678.06C449.596 678.933 450.895 679.557 452.28 679.89L462.76 683.22C466.65 684.46 470.97 686.06 472.62 689.78C474.48 693.98 471.83 699.09 467.91 701.48C463.99 703.87 459.19 704.22 454.6 704.4C428.9 705.39 403.176 703.21 378.01 697.91C377.491 697.835 376.991 697.658 376.54 697.39C374.54 696.04 376.25 693.02 377.98 691.39C384.73 684.99 392.07 678.28 401.26 676.8C406.09 676.01 410.94 676.33 415.74 675.18C419.19 674.35 422.45 672.92 425.89 672.07C432.3 670.5 441.89 669.94 446.47 675.55Z"
            fill="#46455B" />
        <path
            d="M385.05 435.36C381.19 440.36 380.05 446.96 380.57 453.22C381.09 459.48 383.2 465.49 385.27 471.42C382.52 473.95 383.09 478.31 383.45 482.03C384.76 495.85 379.96 509.64 380.66 523.5C380.95 529.33 382.22 535.08 382.52 540.91C382.85 547.28 382.04 553.65 381.28 559.98C376.425 600.504 373.755 641.259 373.28 682.07C373.28 685.83 373.22 689.65 374.28 693.25C381.55 698.6 390.68 699.32 399.48 697.32C408.28 695.32 416.31 690.86 424.2 686.46C428.522 684.223 432.621 681.578 436.44 678.56C437.608 677.733 438.472 676.546 438.9 675.18C439.74 671.18 434.18 669.37 430.99 666.78C426.35 663.01 426.42 656.03 426.9 650.07L429.8 613.91C430.46 605.72 431.1 597.37 429.24 589.37C428.48 586.13 427.31 582.8 428.01 579.54C429.15 574.24 434.63 571.28 438.36 567.33C444 561.33 445.74 552.82 447.04 544.72C453.167 506.293 454.47 467.25 450.92 428.5C443.57 431.05 434.86 429.66 427.11 430.26C419.36 430.86 411.66 433.45 403.81 433.66C397.27 433.81 389.07 430.2 385.05 435.36Z"
            fill="#BBBDC8" />
        <path
            d="M438 257C458.435 257 475 240.435 475 220C475 199.565 458.435 183 438 183C417.565 183 401 199.565 401 220C401 240.435 417.565 257 438 257Z"
            fill="#A1616A" />
        <path
            d="M458.91 280.86C447.054 275.414 434.691 271.147 422 268.12C413.06 265.99 402.85 264.71 395.38 270.06C393.38 271.49 391.57 273.74 392 276.16C393.318 276.204 394.578 276.714 395.554 277.601C396.531 278.487 397.16 279.692 397.33 281C397.55 283.12 396.51 285.15 395.49 287L386.86 303C385.207 305.882 383.786 308.892 382.61 312C380.87 317.08 380.49 322.52 380.12 327.88L379.12 342.4C378.5 351.55 377.87 360.74 378.7 369.87C379.32 376.76 380.76 383.68 379.78 390.53C378.99 396.04 376.66 401.21 375.35 406.63C372.89 416.83 374.01 428.01 369.24 437.37C371.177 436.476 373.364 436.278 375.43 436.81C389.91 439.48 401.3 450.91 415.36 455.28C418.91 450.1 423.72 446.28 427.69 441.46C430.643 437.847 432.598 433.523 433.36 428.92C436.36 432.92 438.91 436.04 440.7 440.68C441.019 441.76 441.564 442.759 442.3 443.61C444.19 445.45 447.3 444.74 449.83 443.97C462.234 440.229 475.057 438.055 488 437.5C490.08 437.41 491.09 436.41 491.74 434.43C492.39 432.45 492.03 430.31 491.64 428.27C489.15 414.94 486.37 401.59 485.91 388.04C485.63 380.04 486.18 371.93 485.17 363.95C484.67 360.04 483.8 356.19 482.94 352.35L475.8 320.62C475.4 318.85 473.5 317.69 472.69 316.06C469.41 309.42 463.14 304.62 459.9 297.96C457.453 292.582 457.1 286.485 458.91 280.86Z"
            fill="#46455B" />
        <path
            d="M407 234.81C406.957 234.292 407.079 233.774 407.35 233.33C407.745 232.915 408.241 232.608 408.79 232.44C410.281 231.732 411.5 230.557 412.264 229.094C413.027 227.63 413.292 225.958 413.02 224.33L416.52 223.6L416.63 211.41C421.83 208.53 428.92 210.71 433.81 207.32C436.56 205.4 437.97 202.14 439.65 199.24C441.33 196.34 443.83 193.42 447.17 193.18C446.021 196.102 445.529 199.24 445.728 202.373C445.926 205.506 446.811 208.557 448.32 211.31C451.822 209.538 454.746 206.804 456.75 203.43L458.49 213.43C458.525 214.047 458.789 214.628 459.23 215.06C460.14 215.73 461.37 214.89 462.17 214.06L466.7 209.61C468.606 214.394 469.913 219.395 470.59 224.5C478.03 217.28 480.34 205.68 477.48 195.72C474.62 185.76 467.13 177.51 458.11 172.42C449.09 167.33 438.63 165.19 428.28 164.81C424.805 164.607 421.319 164.832 417.9 165.48C414.231 166.403 410.681 167.745 407.32 169.48C402.15 171.91 396.93 174.58 393.07 178.78C386.35 186.1 384.84 196.86 385.58 206.78C386.58 219.78 390.8 232.33 395.71 244.41C397.34 248.41 399.08 252.46 401.77 255.87C405.82 261 415.77 256.74 414.5 246.6C413.62 239.36 407 242.15 407 234.81Z"
            fill="#3F3D56" />
        <path
            d="M421 432.9C408.52 458.399 389.356 480.034 365.55 495.5C358.36 500.15 350.55 504.29 342.14 505.65C340.99 505.84 339.84 505.97 338.67 506.05C334.333 506.409 329.976 505.67 326 503.9C323.368 502.575 320.932 500.892 318.76 498.9C310.978 492.089 304.794 483.645 300.65 474.17C298.214 468.224 296.192 462.116 294.6 455.89C292.147 447.183 289.7 438.473 287.26 429.76C284.87 421.24 282.46 412.62 281.96 403.76C281.15 389.37 285.47 375.12 291.54 362.05C292.575 360.037 293.409 357.927 294.03 355.75C294.03 355.6 294.1 355.45 294.13 355.29C294.85 351.84 294.48 348.23 295.13 344.75C296.35 337.75 301.51 331.95 307.57 328.26C313.63 324.57 320.57 322.68 327.46 320.84L338.19 317.95L344.85 316.16L371.94 308.87C375.69 307.87 379.48 306.54 383.29 305.87C387.54 305.07 387.51 305.49 387.84 309.65C388.45 317.19 388.25 324.6 389.84 332.07C391.35 339.2 394.01 346.07 396.01 353.07C401.06 370.74 401.9 389.34 405.88 407.29C406.79 411.38 408.05 415.74 411.34 418.29C415.11 421.29 421.46 422.03 422.46 426.73C422.83 428.82 421.9 430.96 421 432.9Z"
            fill="#9E1FF1" />
        <path opacity="0.1"
            d="M342.14 505.61C340.99 505.8 339.84 505.93 338.67 506.01C334.336 506.382 329.979 505.656 326 503.9C323.368 502.575 320.932 500.892 318.76 498.9C310.978 492.089 304.794 483.645 300.65 474.17C298.214 468.224 296.192 462.116 294.6 455.89C292.147 447.183 289.7 438.473 287.26 429.76C284.87 421.24 282.46 412.62 281.96 403.76C281.15 389.37 285.47 375.12 291.54 362.05C292.575 360.037 293.409 357.927 294.03 355.75C294.03 355.6 294.1 355.45 294.13 355.29C310.45 358.16 330.03 389.38 340.13 430.29C347.57 460.88 347.89 489.05 342.14 505.61Z"
            fill="black" />
        <path opacity="0.1"
            d="M371.64 397.97L368.91 398.44C366.1 391.06 363.3 383.67 360.01 376.49C358.3 372.74 356.45 369.04 355.01 365.17C349.61 350.31 350.53 332.68 340.52 320.44C339.805 319.531 338.99 318.706 338.09 317.98L344.75 316.19C350.582 325.411 354.695 335.612 356.89 346.3C357.97 351.52 358.58 356.86 360.34 361.88C361.837 365.688 363.55 369.407 365.47 373.02C369.27 380.81 372.13 389.32 371.64 397.97Z"
            fill="black" />
        <path
            d="M398.22 285.3C405.41 279.14 415.22 275.76 424.53 277.3C430.01 278.19 435.1 280.66 440.01 283.3C449.58 288.38 459.01 294.23 465.91 302.58C470.048 307.846 473.483 313.628 476.13 319.78C477.428 322.468 478.434 325.287 479.13 328.19C481.57 339.49 475.58 350.72 469.81 360.74L458.71 380C453.61 388.85 448.47 397.76 441.83 405.53C438.77 409.11 435.41 412.42 432.06 415.73L417.35 430.25C417.086 430.562 416.739 430.794 416.35 430.92C416.029 430.937 415.708 430.884 415.409 430.765C415.111 430.646 414.841 430.463 414.62 430.23L409.76 426.36C414.237 423.267 418.397 419.74 422.18 415.83C428.54 409.25 433.77 401.68 438.97 394.14L455.15 370.68C459.88 363.81 464.82 356.25 464.29 347.93C464.04 343.93 462.54 340.17 460.97 336.5C458.19 329.973 455.17 323.55 451.91 317.23C448.25 310.14 444.25 303.14 438.98 297.15C433.71 291.16 427.05 286.15 419.38 283.98C417.093 283.233 414.668 283 412.28 283.3C407.02 284.17 403.28 288.69 399.95 292.89L389.81 305.89C387.5 308.84 385.38 312.26 385.24 306.66C385 298.67 393.08 290.44 398.22 285.3Z"
            fill="#6C63FF" />
        <path
            d="M401.36 373C403.36 380.7 406.31 389.44 413.72 392.36C418.97 394.43 425.12 392.75 429.66 389.36C434.2 385.97 437.42 381.19 440.38 376.36C442.885 372.02 445.647 367.832 448.65 363.82C454.58 356.38 462.65 350.48 466.65 341.82C467.83 339.24 468.65 336.48 469.99 334C471.422 331.713 473.041 329.549 474.83 327.53C479.434 321.826 483.116 315.435 485.74 308.59C486.66 306.2 487.45 303.64 487.09 301.11C486.38 296.24 481.77 293.04 477.48 290.65C474.87 289.2 472.14 287.79 469.17 287.57C464.83 287.23 460.56 289.57 457.89 293C455.32 296.548 453.883 300.79 453.77 305.17C453.47 310.5 454.51 316.04 452.77 321.08C451.85 323.431 450.579 325.63 449 327.6C443.383 335.115 436.43 341.532 428.49 346.53C428.272 342.747 427.452 339.024 426.06 335.5C425.3 333.56 410.4 335.5 408.46 335.82C404.62 336.38 397.18 336.82 394.76 340.48C392.34 344.14 395.34 350.29 396.32 353.98L401.36 373Z"
            fill="#A1616A" />
        <path
            d="M401 288.97C398.786 290.799 396.726 292.805 394.84 294.97C390.4 300.32 388.23 307.28 387.67 314.21C387.11 321.14 388.06 328.1 389.25 334.95C390.33 341.097 391.607 347.2 393.08 353.26C393.49 348.69 397.19 344.91 401.48 343.26C405.77 341.61 410.48 341.79 415.05 342.46C420.932 343.331 426.67 344.99 432.11 347.39L434.22 317.82C434.664 313.831 434.641 309.804 434.15 305.82C433.485 302.124 432.041 298.611 429.913 295.516C427.786 292.421 425.023 289.814 421.81 287.87C413.79 282.99 408.2 282.68 401 288.97Z"
            fill="#46455B" />
        <path
            d="M778.78 432.86C777.831 424.835 775.496 417.036 771.88 409.81C769.67 405.41 766.98 401.2 765.59 396.49C764.46 392.66 764.24 388.63 763.34 384.74C762.44 380.85 760.85 377.13 759.57 373.33C750.52 346.33 757.32 316.79 754.4 288.49C753.31 278.05 750.11 266.6 741.06 261.16C735.68 257.93 729.22 257.43 722.89 257.16L720 257.03L715.36 256.8C708.64 256.47 701.9 256.22 695.36 257.63C687.36 259.38 677.88 265.01 675.36 273.18C673.98 272.47 672.59 271.84 671.31 271.25C666.159 268.965 660.759 267.287 655.22 266.25C659.971 265.053 664.559 263.28 668.88 260.97C678.88 255.15 681.2 238.15 683.24 226.78C685.28 215.41 683.42 203.66 680.03 192.61C678.91 188.689 677.385 184.895 675.48 181.29C672.848 176.541 669.265 172.386 664.954 169.085C660.644 165.783 655.699 163.406 650.429 162.102C645.159 160.797 639.676 160.594 634.323 161.504C628.971 162.413 623.863 164.417 619.32 167.39C609.99 173.5 601.32 182.39 594.2 190.98C593.2 192.16 589.02 196.34 590.41 198.1C591.19 199.1 593.76 198.3 596.46 197.1C594.383 201.792 593.313 206.868 593.32 212C593.326 218.445 595.01 224.778 598.206 230.375C601.403 235.972 606.002 240.64 611.55 243.92L612.55 253.12V253.19C612.66 256.26 612.71 259.33 612.75 262.39C612.75 264.54 612.75 266.74 612.69 268.94C608.541 273.635 603.46 277.415 597.77 280.04C602.47 280.82 606.95 279.72 611.31 277.84C610.601 280.296 609.412 282.587 607.81 284.58C609.01 284.16 610.21 283.78 611.41 283.38C610.783 284.388 610.225 285.437 609.74 286.52C609 288.232 608.46 290.024 608.13 291.86C605.584 295.581 603.378 299.523 601.54 303.64C600.7 305.51 599.95 307.41 599.27 309.34V309.47C598.603 311.39 598.013 313.337 597.5 315.31C597.26 316.257 597.04 317.207 596.84 318.16C596.84 318.23 596.84 318.3 596.84 318.37C596.44 320.3 596.11 322.24 595.84 324.2C595.84 324.33 595.84 324.46 595.84 324.6C595.73 325.51 595.63 326.43 595.56 327.35C595.56 327.35 595.56 327.44 595.56 327.49C595.48 328.49 595.42 329.44 595.39 330.42C595.39 330.55 595.39 330.67 595.39 330.8C595.39 331.63 595.39 332.47 595.39 333.3V333.87C595.39 335.75 595.51 337.64 595.69 339.53C595.69 339.76 595.69 340 595.76 340.23C595.84 341 595.93 341.77 596.04 342.55C596.04 342.73 596.04 342.91 596.11 343.08C596.24 344.01 596.39 344.93 596.56 345.85C596.56 346.05 596.65 346.26 596.69 346.46C596.83 347.2 596.98 347.93 597.15 348.67L597.33 349.43C597.55 350.35 597.78 351.26 598.04 352.18C598.19 352.7 598.34 353.18 598.5 353.73C598.977 355.626 599.312 357.554 599.5 359.5L594.03 359.68C582.323 360.013 570.627 360.543 558.94 361.27C557.48 355.64 552.5 352.39 546.23 351.62C545.234 351.5 544.233 351.44 543.23 351.44C544.312 350.529 545.273 349.484 546.09 348.33C547.178 346.833 547.953 345.133 548.37 343.33C546.758 344.247 545.35 345.482 544.23 346.96C543.86 347.46 543.53 347.96 543.23 348.42V345.42C543.231 345.357 543.22 345.294 543.196 345.235C543.173 345.176 543.137 345.122 543.092 345.077C543.048 345.033 542.994 344.997 542.935 344.974C542.876 344.95 542.813 344.939 542.75 344.94H541.75C541.687 344.939 541.624 344.95 541.565 344.974C541.506 344.997 541.452 345.033 541.408 345.077C541.363 345.122 541.327 345.176 541.304 345.235C541.28 345.294 541.269 345.357 541.27 345.42V351.53H541.07H540.73C540.07 351.59 539.43 351.67 538.8 351.79C531.99 353.06 527 357.43 527 364.79C527.002 367.107 527.507 369.397 528.481 371.5C529.455 373.603 530.874 375.469 532.64 376.97C532.933 379.262 533.453 381.52 534.19 383.71C534.88 385.88 535.78 388.24 537.8 389.32C539.034 389.88 540.387 390.127 541.74 390.04C552.86 390.04 563.38 384.91 574.45 384.04C581.29 383.49 588.16 384.55 595.02 384.34C596.02 384.34 597.02 384.24 598.02 384.16C588.64 430.61 577.29 477.65 583.22 524.57C583.61 527.69 584.22 531.07 586.55 533.19C589.64 536.01 594.4 535.55 598.55 535.19C609.938 534.151 621.421 535.068 632.5 537.9C634.058 538.331 635.695 538.389 637.28 538.07C637.619 537.993 637.953 537.896 638.28 537.78L638.56 537.67C638.77 537.59 638.97 537.51 639.16 537.42L639.45 537.27L639.94 536.97C640.02 536.91 640.11 536.86 640.18 536.8C640.354 536.68 640.518 536.546 640.67 536.4L640.81 536.28C640.997 536.097 641.174 535.903 641.34 535.7L641.46 535.52C641.576 535.37 641.683 535.213 641.78 535.05C641.83 534.97 641.88 534.89 641.92 534.81C641.96 534.73 642.08 534.51 642.15 534.36C642.22 534.21 642.23 534.18 642.26 534.09C642.29 534 642.39 533.76 642.45 533.59C642.51 533.42 642.45 533.43 642.53 533.34C642.61 533.25 642.67 532.84 642.72 532.59V532.43C642.72 532.22 642.8 532 642.83 531.79C642.86 531.58 642.83 531.57 642.83 531.46C642.83 531.35 642.83 531.13 642.83 530.97V530.61C642.83 530.45 642.83 530.29 642.83 530.13V529.24C642.83 529.14 642.83 529.03 642.83 528.92C642.83 528.03 642.73 527.13 642.64 526.27C643.355 526.478 644.083 526.635 644.82 526.74C645.508 526.849 646.204 526.899 646.9 526.89H647C647.33 526.89 647.66 526.89 648 526.81C648.29 526.765 648.577 526.705 648.86 526.63H648.99C649.252 526.553 649.506 526.452 649.75 526.33L649.87 526.26C650.078 526.144 650.275 526.01 650.46 525.86L650.55 525.79C650.737 525.616 650.905 525.421 651.05 525.21L651.14 525.06C651.288 524.819 651.406 524.56 651.49 524.29C652.06 522.36 650.76 520.18 652.84 518.41C654.84 524.82 656.84 531.24 657.17 537.87C657.28 540.29 657.17 542.87 658.59 544.87C659.514 545.962 660.517 546.984 661.59 547.93C664.65 551.24 664.72 556.23 664.51 560.71C664.42 562.52 664.32 564.33 664.19 566.14C662.538 590.294 657.627 614.113 649.59 636.95C648.807 639.38 647.782 641.725 646.53 643.95C644.501 647.099 641.963 649.891 639.02 652.21C634.851 655.751 630.384 658.926 625.67 661.7C623.262 662.973 620.987 664.484 618.88 666.21C618.8 665.98 618.71 665.76 618.65 665.52C618.54 665.06 618.39 664.52 617.94 664.35C617.599 664.273 617.24 664.33 616.94 664.51C612.25 666.57 607.56 668.63 603.05 671.04C600.773 672.077 598.768 673.628 597.19 675.57C595.75 677.57 595.32 680.57 596.81 682.57C598.12 684.32 600.47 684.9 602.64 685.29C605.42 685.78 608.21 686.13 611 686.39C609.566 687.23 608.312 688.344 607.31 689.67C605.87 691.67 605.44 694.67 606.93 696.67C608.24 698.42 610.59 699 612.76 699.39C630.49 702.52 648.67 700.39 666.67 699.86C672.52 699.67 678.5 699.63 684.04 697.73C685.133 697.407 686.152 696.874 687.04 696.16C689.56 693.94 689.31 690.04 688.87 686.73L687.04 673.21C686.77 673.21 686.51 673.3 686.25 673.36C687.783 660.659 690.532 648.135 694.46 635.96C700.56 617.01 709.64 598.34 709.52 578.51C709.52 578.03 709.52 577.51 709.52 577.07C709.35 570.86 708.24 564.72 707.52 558.54C706.39 548.2 706.52 537.77 706.59 527.38C706.503 523.306 706.787 519.232 707.44 515.21C707.44 515.07 707.5 514.94 707.53 514.8L724.14 514.36C725.98 514.453 727.817 514.11 729.5 513.36C730.296 513.011 730.935 512.379 731.293 511.587C731.651 510.795 731.703 509.898 731.44 509.07C738.52 512.28 747.99 507.91 750.08 500.47C750.225 499.947 750.342 499.416 750.43 498.88C750.425 498.84 750.425 498.8 750.43 498.76C750.5 498.26 750.55 497.76 750.57 497.27C750.57 497.19 750.57 497.1 750.57 497.02C750.674 493.585 750.141 490.161 749 486.92C745.6 477.29 740.2 468.52 735.12 459.65C732.5 455.06 729.96 450.41 727.49 445.74L729.66 448.53C730.422 449.668 731.421 450.627 732.59 451.34C736.64 453.43 740.88 449.22 745 447.28C750.47 444.7 756.87 446.22 762.91 446.65C768.95 447.08 776.23 445.52 778.39 439.92C779.09 437.633 779.224 435.21 778.78 432.86ZM674.65 282.57C674.65 284.71 674.79 286.88 674.96 289.06C672.93 285.743 670.586 282.628 667.96 279.76L674.65 282.57Z"
            fill="url(#paint1_linear_339_997)" />
        <path
            d="M544 348.76C545.107 347.294 546.498 346.067 548.09 345.15C547.684 346.951 546.919 348.652 545.84 350.15C544.1 352.52 542.27 354.15 541.76 353.76C541.25 353.37 542.24 351.13 544 348.76Z"
            fill="#99D55C" />
        <path opacity="0.1"
            d="M544.22 348.94C545.029 347.851 546.049 346.936 547.22 346.25C546.916 347.582 546.348 348.84 545.55 349.95C544.25 351.71 542.89 352.95 542.55 352.64C542.21 352.33 542.92 350.7 544.22 348.94Z"
            fill="black" />
        <path
            d="M541.57 346.77H542.57C542.633 346.77 542.695 346.782 542.754 346.807C542.812 346.831 542.865 346.866 542.909 346.911C542.954 346.955 542.989 347.008 543.013 347.066C543.038 347.125 543.05 347.187 543.05 347.25V358.58H541.15V347.25C541.149 347.132 541.191 347.019 541.269 346.93C541.346 346.842 541.453 346.785 541.57 346.77Z"
            fill="#F6987E" />
        <path
            d="M559 366.58C559 370.823 557.314 374.893 554.314 377.894C551.313 380.894 547.243 382.58 543 382.58C538.757 382.58 534.687 380.894 531.686 377.894C528.686 374.893 527 370.823 527 366.58C527 359.25 531.93 354.91 538.66 353.64C540.091 353.376 541.544 353.245 543 353.25C544.003 353.249 545.005 353.309 546 353.43C553.4 354.35 559 358.77 559 366.58Z"
            fill="#FC4A4A" />
        <path opacity="0.1"
            d="M546 353.43C545.71 353.98 544.14 354.43 542.24 354.43C541 354.521 539.76 354.261 538.66 353.68C540.092 353.416 541.545 353.285 543 353.29C544.002 353.275 545.004 353.322 546 353.43Z"
            fill="black" />
        <path opacity="0.1"
            d="M545.67 382.2C541.427 382.2 537.357 380.514 534.356 377.514C531.356 374.513 529.67 370.443 529.67 366.2C529.67 359 534.42 354.69 540.96 353.34C540.189 353.399 539.421 353.499 538.66 353.64C531.93 354.91 527 359.25 527 366.58C527 370.823 528.686 374.893 531.686 377.894C534.687 380.894 538.757 382.58 543 382.58C544.208 382.582 545.413 382.445 546.59 382.17C546.28 382.19 546 382.2 545.67 382.2Z"
            fill="black" />
        <path
            d="M616.2 678.35C618.41 680.35 621.79 680.3 624.79 680.08L638.46 679.08C649.32 678.28 660.55 677.38 670.13 672.21C671.144 671.746 672.042 671.063 672.76 670.21C673.522 668.902 673.919 667.414 673.91 665.9C675.204 651.088 678.149 636.468 682.69 622.31C688.69 603.46 697.69 584.88 697.57 565.15C697.57 564.67 697.57 564.15 697.57 563.72C697.4 557.54 696.31 551.43 695.64 545.28C694.53 534.99 694.64 524.62 694.72 514.28C694.635 510.226 694.916 506.173 695.56 502.17C696.19 498.92 698.56 495.66 697.11 492.8C694.3 487.25 684.11 485.21 678.63 485.01C671.25 484.75 663.99 486.68 656.86 488.6C654.69 489.19 652.42 489.82 650.78 491.35C648.58 493.41 647.95 496.64 647.87 499.65C647.49 513 655.18 525.42 655.79 538.75C655.9 541.15 655.79 543.75 657.19 545.75C658.114 546.839 659.116 547.859 660.19 548.8C663.19 552.09 663.28 557.05 663.07 561.51C662.98 563.31 662.88 565.11 662.76 566.91C661.127 590.934 656.273 614.629 648.33 637.36C647.564 639.787 646.559 642.132 645.33 644.36C643.324 647.488 640.817 650.265 637.91 652.58C633.791 656.098 629.378 659.256 624.72 662.02C621.61 663.86 618.29 665.62 616.16 668.54C614.03 671.46 613.56 675.89 616.2 678.35Z"
            fill="#441E09" />
        <path opacity="0.1"
            d="M616.2 678.35C618.41 680.35 621.79 680.3 624.79 680.08L638.46 679.08C649.32 678.28 660.55 677.38 670.13 672.21C671.144 671.746 672.042 671.063 672.76 670.21C673.522 668.902 673.919 667.414 673.91 665.9C675.204 651.088 678.149 636.468 682.69 622.31C688.69 603.46 697.69 584.88 697.57 565.15C697.57 564.67 697.57 564.15 697.57 563.72C697.4 557.54 696.31 551.43 695.64 545.28C694.53 534.99 694.64 524.62 694.72 514.28C694.635 510.226 694.916 506.173 695.56 502.17C696.19 498.92 698.56 495.66 697.11 492.8C694.3 487.25 684.11 485.21 678.63 485.01C671.25 484.75 663.99 486.68 656.86 488.6C654.69 489.19 652.42 489.82 650.78 491.35C648.58 493.41 647.95 496.64 647.87 499.65C647.49 513 655.18 525.42 655.79 538.75C655.9 541.15 655.79 543.75 657.19 545.75C658.114 546.839 659.116 547.859 660.19 548.8C663.19 552.09 663.28 557.05 663.07 561.51C662.98 563.31 662.88 565.11 662.76 566.91C661.127 590.934 656.273 614.629 648.33 637.36C647.564 639.787 646.559 642.132 645.33 644.36C643.324 647.488 640.817 650.265 637.91 652.58C633.791 656.098 629.378 659.256 624.72 662.02C621.61 663.86 618.29 665.62 616.16 668.54C614.03 671.46 613.56 675.89 616.2 678.35Z"
            fill="black" />
        <path
            d="M616.2 678.35C618.41 680.35 621.79 680.3 624.79 680.08L638.46 679.08C649.32 678.28 660.55 677.38 670.13 672.21C671.144 671.746 672.042 671.063 672.76 670.21C673.522 668.902 673.919 667.414 673.91 665.9C675.204 651.088 678.149 636.468 682.69 622.31C688.69 603.46 697.69 584.88 697.57 565.15C686.012 566.428 674.388 567.002 662.76 566.87C661.127 590.894 656.273 614.589 648.33 637.32C647.564 639.747 646.559 642.092 645.33 644.32C643.324 647.448 640.817 650.225 637.91 652.54C633.791 656.058 629.378 659.216 624.72 661.98C621.61 663.82 618.29 665.58 616.16 668.5C614.03 671.42 613.56 675.89 616.2 678.35Z"
            fill="#EEEFF3" />
        <path opacity="0.1"
            d="M616.2 678.35C618.41 680.35 621.79 680.3 624.79 680.08L638.46 679.08C649.32 678.28 660.55 677.38 670.13 672.21C671.144 671.746 672.042 671.063 672.76 670.21C673.522 668.902 673.919 667.414 673.91 665.9C675.204 651.088 678.149 636.468 682.69 622.31C688.69 603.46 697.69 584.88 697.57 565.15C686.012 566.428 674.388 567.002 662.76 566.87C661.127 590.894 656.273 614.589 648.33 637.32C647.564 639.747 646.559 642.092 645.33 644.32C643.324 647.448 640.817 650.225 637.91 652.54C633.791 656.058 629.378 659.216 624.72 661.98C621.61 663.82 618.29 665.58 616.16 668.5C614.03 671.42 613.56 675.89 616.2 678.35Z"
            fill="black" />
        <path
            d="M646.4 674.13C649.685 672.953 652.841 671.445 655.82 669.63L670.89 661.13C672.252 660.248 673.769 659.634 675.36 659.32L677.16 672.77C677.61 676.07 677.85 679.95 675.36 682.16C674.471 682.87 673.452 683.4 672.36 683.72C666.89 685.61 660.99 685.65 655.2 685.83C637.42 686.4 619.46 688.48 601.94 685.36C599.8 684.98 597.48 684.36 596.19 682.66C594.72 680.66 595.14 677.76 596.56 675.73C598.117 673.8 600.098 672.257 602.35 671.22C606.81 668.82 611.44 666.78 616.07 664.73C616.356 664.561 616.695 664.504 617.02 664.57C617.47 664.72 617.61 665.27 617.73 665.73C618.54 669.01 621.18 671.6 624.19 673.15C624.23 673.15 639.74 676.25 646.4 674.13Z"
            fill="#BBBDC8" />
        <path opacity="0.1"
            d="M646.4 674.13C649.685 672.953 652.841 671.445 655.82 669.63L670.89 661.13C672.252 660.248 673.769 659.634 675.36 659.32L677.16 672.77C677.61 676.07 677.85 679.95 675.36 682.16C674.471 682.87 673.452 683.4 672.36 683.72C666.89 685.61 660.99 685.65 655.2 685.83C637.42 686.4 619.46 688.48 601.94 685.36C599.8 684.98 597.48 684.36 596.19 682.66C594.72 680.66 595.14 677.76 596.56 675.73C598.117 673.8 600.098 672.257 602.35 671.22C606.81 668.82 611.44 666.78 616.07 664.73C616.356 664.561 616.695 664.504 617.02 664.57C617.47 664.72 617.61 665.27 617.73 665.73C618.54 669.01 621.18 671.6 624.19 673.15C624.23 673.15 639.74 676.25 646.4 674.13Z"
            fill="black" />
        <path
            d="M626.2 692.35C628.41 694.35 631.79 694.3 634.79 694.08L648.46 693.08C659.32 692.28 670.55 691.38 680.13 686.21C681.144 685.746 682.042 685.063 682.76 684.21C683.522 682.902 683.919 681.414 683.91 679.9C685.204 665.088 688.149 650.468 692.69 636.31C698.69 617.46 707.69 598.88 707.57 579.15C707.57 578.67 707.57 578.15 707.57 577.72C707.4 571.54 706.31 565.43 705.64 559.28C704.53 548.99 704.64 538.62 704.72 528.28C704.635 524.226 704.916 520.173 705.56 516.17C706.19 512.92 708.56 509.66 707.11 506.8C704.3 501.25 694.11 499.21 688.63 499.01C681.25 498.75 673.99 500.68 666.86 502.6C664.69 503.19 662.42 503.82 660.78 505.35C658.58 507.41 657.95 510.64 657.87 513.65C657.49 527 665.18 539.42 665.79 552.75C665.9 555.15 665.79 557.75 667.19 559.75C668.114 560.839 669.116 561.859 670.19 562.8C673.19 566.09 673.28 571.05 673.07 575.51C672.98 577.31 672.88 579.11 672.76 580.91C671.127 604.934 666.273 628.629 658.33 651.36C657.564 653.787 656.559 656.132 655.33 658.36C653.324 661.488 650.817 664.265 647.91 666.58C643.791 670.098 639.378 673.256 634.72 676.02C631.61 677.86 628.29 679.62 626.16 682.54C624.03 685.46 623.56 689.89 626.2 692.35Z"
            fill="#723F24" />
        <path
            d="M626.2 692.35C628.41 694.35 631.79 694.3 634.79 694.08L648.46 693.08C659.32 692.28 670.55 691.38 680.13 686.21C681.144 685.746 682.042 685.063 682.76 684.21C683.522 682.902 683.919 681.414 683.91 679.9C685.204 665.088 688.149 650.468 692.69 636.31C698.69 617.46 707.69 598.88 707.57 579.15C696.012 580.428 684.388 581.002 672.76 580.87C671.127 604.894 666.273 628.589 658.33 651.32C657.564 653.747 656.559 656.092 655.33 658.32C653.324 661.448 650.817 664.225 647.91 666.54C643.791 670.058 639.378 673.216 634.72 675.98C631.61 677.82 628.29 679.58 626.16 682.5C624.03 685.42 623.56 689.89 626.2 692.35Z"
            fill="#EEEFF3" />
        <path
            d="M656.4 688.13C659.685 686.953 662.841 685.445 665.82 683.63L680.89 675.13C682.252 674.248 683.769 673.634 685.36 673.32L687.16 686.77C687.61 690.07 687.85 693.95 685.36 696.16C684.471 696.87 683.452 697.4 682.36 697.72C676.89 699.61 670.99 699.65 665.2 699.83C647.42 700.4 629.46 702.48 611.94 699.36C609.8 698.98 607.48 698.36 606.19 696.66C604.72 694.66 605.14 691.76 606.56 689.73C608.117 687.8 610.098 686.257 612.35 685.22C616.81 682.82 621.44 680.78 626.07 678.73C626.356 678.561 626.695 678.504 627.02 678.57C627.47 678.72 627.61 679.27 627.73 679.73C628.54 683.01 631.18 685.6 634.19 687.15C634.23 687.15 649.74 690.25 656.4 688.13Z"
            fill="#BBBDC8" />
        <path
            d="M606.81 286.71C611.68 280.71 611.81 272.33 611.69 264.63C611.69 261.63 611.6 258.53 611.49 255.48V255.41C611.355 249.805 610.763 244.219 609.72 238.71C609.194 236.066 608.492 233.461 607.62 230.91C608.28 230.76 608.94 230.62 609.62 230.5C620.102 228.43 630.888 228.43 641.37 230.5C643.18 230.86 647.76 230.78 650.37 231.67C651.113 231.847 651.76 232.302 652.18 232.94C652.69 234.01 651.64 237.11 650.88 239.86C650.462 241.099 650.226 242.393 650.18 243.7C650.281 244.928 650.468 246.148 650.74 247.35C651.21 249.56 651.83 251.75 652.12 253.99C652.63 257.81 652.18 261.7 652.43 265.55C652.68 269.4 653.79 273.45 656.72 275.96C639.696 277.42 622.926 281.032 606.81 286.71Z"
            fill="#723F24" />
        <path opacity="0.1"
            d="M654.73 246.91C653.4 247.02 652.08 247.15 650.73 247.3C637.41 248.722 624.265 251.469 611.49 255.5V255.43L609.72 238.73C609.72 237.73 609.72 236.73 609.72 235.68C609.72 233.97 609.67 232.24 609.63 230.52C620.112 228.45 630.898 228.45 641.38 230.52C643.19 230.88 647.77 230.8 650.38 231.69C650.38 233.32 650.38 234.95 650.44 236.58C650.506 237.69 650.656 238.793 650.89 239.88C651.368 242.58 652.717 245.049 654.73 246.91Z"
            fill="black" />
        <path
            d="M629.5 251.5C649.935 251.5 666.5 234.935 666.5 214.5C666.5 194.065 649.935 177.5 629.5 177.5C609.065 177.5 592.5 194.065 592.5 214.5C592.5 234.935 609.065 251.5 629.5 251.5Z"
            fill="#723F24" />
        <path
            d="M597 354.01C590.43 330.76 596.43 305.79 612.12 287.43C615.61 283.34 619.12 279.14 623.7 276.69C629.15 273.79 635.6 273.69 641.77 273.63C647.22 273.63 652.84 273.63 657.85 275.8C664.62 278.69 669.29 284.97 673.23 291.2C677.43 297.84 681.23 305.03 681.87 312.87C682.21 317.52 681.39 322.24 682.08 326.87C682.96 332.74 686.23 338 687.57 343.78C688.3 346.9 688.45 350.13 688.92 353.31C689.628 357.66 690.658 361.952 692 366.15C701.936 399.141 715.541 430.912 732.56 460.87C737.56 469.7 742.91 478.43 746.27 488C747.79 492.33 748.89 497 747.65 501.46C745.58 508.86 736.23 513.21 729.24 510.02C729.499 510.842 729.446 511.73 729.092 512.516C728.738 513.302 728.107 513.929 727.32 514.28C725.658 515.03 723.841 515.373 722.02 515.28L660.26 516.92C658.638 516.961 657.025 517.179 655.45 517.57C648.19 519.43 650.92 522.57 650.14 525.19C649.19 528.39 644.6 528.13 641.4 527.19C641.89 531.86 642 537.57 635.97 538.93C634.406 539.247 632.789 539.192 631.25 538.77C620.308 535.951 608.962 535.038 597.71 536.07C593.59 536.45 588.88 536.91 585.83 534.07C583.53 531.96 582.93 528.6 582.54 525.5C576.39 476.5 589.04 427.43 598.54 379.02C599.82 372.49 599.36 361.91 597.44 355.53L597 354.01Z"
            fill="#97FCB5" />
        <path
            d="M679 320.24C680.45 324.42 682.26 328.53 682.75 332.93C683.14 336.45 682.67 340.01 682.88 343.54C683.264 347.459 684.072 351.325 685.29 355.07C687.215 362.353 689.59 369.51 692.4 376.5C693.74 379.65 695.29 383.12 694.21 386.37C693.13 389.62 689.78 391.63 688.82 394.86C687.82 398.27 689.82 401.86 692.37 404.35C694.92 406.84 698.11 408.61 700.47 411.26C703.04 414.15 704.47 417.84 706.28 421.26C708.85 425.783 711.797 430.082 715.09 434.11L727.18 449.8C727.934 450.931 728.923 451.886 730.08 452.6C734.08 454.68 738.27 450.49 742.34 448.6C747.74 446.03 754.06 447.54 760.03 447.97C766 448.4 773.19 446.85 775.32 441.27C776.025 439.005 776.173 436.604 775.75 434.27C774.814 426.291 772.507 418.533 768.93 411.34C766.75 406.96 764.09 402.77 762.72 398.08C761.6 394.27 761.38 390.26 760.49 386.39C759.6 382.52 758.03 378.82 756.77 375.04C747.83 348.18 754.55 318.79 751.66 290.63C750.59 280.24 747.42 268.85 738.48 263.44C733.17 260.23 726.79 259.73 720.48 259.44L717.63 259.31L713.04 259.08C706.4 258.75 699.74 258.5 693.27 259.91C684.17 261.91 673.22 268.98 672.86 279.14C672.469 293.095 674.547 307.009 679 320.24Z"
            fill="#9E1FF1" />
        <path opacity="0.1"
            d="M713.09 259.04C714.317 265.845 714.93 272.746 714.92 279.66C715.1 299.4 717.23 319.06 719.37 338.66L720.78 351.66C721.04 354.06 721.35 356.58 722.78 358.51C724.21 360.44 727.21 361.45 729.1 359.96C730.26 355.37 730.03 350.55 729.8 345.82C729.3 335.76 728.803 325.697 728.31 315.63C727.83 305.83 727.31 296.02 726.12 286.28C725.186 278.736 723.811 271.253 722 263.87C721.657 262.341 721.178 260.845 720.57 259.4L717.72 259.27L713.09 259.04Z"
            fill="black" />
        <path
            d="M647.75 267.5C641.62 266.62 635.2 266.17 629.38 268.3C623.82 270.35 619.38 274.56 615.38 278.99C612.653 281.845 610.398 285.116 608.7 288.68C605.29 296.52 606.62 305.56 608.7 313.86C614.37 336.72 625.63 358.77 643.7 373.86C649.201 378.329 655.057 382.343 661.21 385.86C669.21 390.55 677.47 394.86 686.32 397.57C688.79 398.33 691.42 398.97 693.95 398.43C696.48 397.89 698.87 395.84 698.95 393.25C684.45 385.1 671.45 374.57 658.54 364.09C655.001 361.36 651.687 358.35 648.63 355.09C644.05 349.94 640.82 343.72 636.38 338.45C632.38 333.72 627.38 329.73 624.38 324.32C622.497 320.625 621.237 316.645 620.65 312.54C619.17 304.17 618.89 295.28 622.21 287.45C625.53 279.62 633.14 273.19 641.64 273.33C646 273.4 650.15 275.13 654.17 276.82L679.47 287.5C679.16 287.36 680.92 282.97 680.84 282.36C680.6 280.45 680.26 280.42 678.84 278.97C676.42 276.55 672.66 274.85 669.59 273.44C662.632 270.424 655.277 268.423 647.75 267.5Z"
            fill="#9E1FF1" />
        <path
            d="M597.39 207.5C604.608 205.896 611.288 202.451 616.78 197.5L611.49 225.26C616.76 222.841 621.87 220.089 626.79 217.02C627.5 229.72 626.47 242.71 621.79 254.53C617.11 266.35 608.48 276.93 596.9 282.18C607.18 283.9 616.41 276.52 625.56 271.53C631.94 268.06 642.84 271.63 649.82 269.53C655.74 267.79 661.82 266.27 667.16 263.16C677.08 257.37 679.33 240.46 681.34 229.16C683.35 217.86 681.52 206.16 678.18 195.16C677.069 191.264 675.564 187.492 673.69 183.9C671.114 179.183 667.588 175.052 663.334 171.768C659.08 168.484 654.191 166.117 648.977 164.819C643.762 163.52 638.334 163.317 633.037 164.222C627.739 165.128 622.687 167.123 618.2 170.08C608.98 176.15 600.43 185.08 593.39 193.55C592.39 194.72 588.26 198.88 589.63 200.63C591.3 202.75 601.1 196.71 602.76 195.89C602.28 197.7 599.3 207.03 597.39 207.5Z"
            fill="#282418" />
        <g opacity="0.1">
            <path
                d="M639 530.93C637.436 531.247 635.819 531.192 634.28 530.77C623.338 527.951 611.992 527.038 600.74 528.07C596.62 528.45 591.91 528.91 588.86 526.07C586.56 523.96 585.96 520.6 585.57 517.5C579.42 468.5 592.07 419.43 601.57 371.02C602.85 364.49 602.39 353.91 600.47 347.53L600.02 345.98C596.318 332.76 596.537 318.748 600.65 305.65C593.828 320.85 592.536 337.958 597 354.01L597.45 355.56C599.37 361.94 599.83 372.56 598.55 379.05C589.08 427.46 576.43 476.56 582.55 525.53C582.94 528.63 583.55 531.99 585.84 534.1C588.84 536.91 593.6 536.45 597.72 536.1C608.972 535.068 620.318 535.981 631.26 538.8C632.799 539.222 634.416 539.277 635.98 538.96C640.9 537.85 641.73 533.84 641.61 529.87C640.811 530.378 639.927 530.737 639 530.93Z"
                fill="black" />
            <path
                d="M732.26 502.02C732.519 502.842 732.466 503.73 732.112 504.516C731.758 505.302 731.127 505.929 730.34 506.28C728.678 507.03 726.861 507.373 725.04 507.28L663.28 508.92C661.658 508.961 660.045 509.179 658.47 509.57C651.21 511.43 653.94 514.57 653.16 517.19C652.21 520.39 647.62 520.13 644.42 519.19C644.72 522.04 644.87 525.27 643.58 527.67C646.39 528.09 649.41 527.72 650.16 525.19C650.91 522.66 648.21 519.43 655.47 517.57C657.045 517.179 658.658 516.961 660.28 516.92L722 515.28C723.821 515.373 725.638 515.03 727.3 514.28C728.087 513.929 728.718 513.302 729.072 512.516C729.426 511.73 729.479 510.842 729.22 510.02C736.22 513.21 745.56 508.86 747.63 501.46C747.942 500.339 748.117 499.183 748.15 498.02C744.41 502.5 737.64 504.5 732.26 502.02Z"
                fill="black" />
        </g>
        <path
            d="M649.41 293.06C654.722 304.354 659.419 315.928 663.48 327.73C666.76 337.24 669.65 347.23 668.56 357.23C667.47 367.23 661.56 377.33 651.96 380.48C647.88 381.82 643.51 381.83 639.22 381.93C628.944 382.171 618.691 382.999 608.51 384.41C603.772 385.194 598.995 385.725 594.2 386C587.42 386.22 580.64 385.16 573.88 385.71C562.94 386.6 552.55 391.71 541.57 391.71C540.231 391.793 538.891 391.546 537.67 390.99C535.67 389.91 534.78 387.57 534.1 385.41C532.57 380.53 531.37 374.93 533.96 370.52C537.15 365.09 544.4 364 550.69 363.52C564.85 362.52 579.027 361.82 593.22 361.42C605.33 361.08 618.45 360.62 627.84 352.96C628.473 352.507 628.991 351.911 629.35 351.22C629.704 350.049 629.662 348.794 629.23 347.65C625.508 333.107 623.912 318.101 624.49 303.1C624.426 301.755 624.775 300.422 625.49 299.28C626.34 298.365 627.444 297.724 628.66 297.44C637.044 294.75 646.02 294.5 654.54 296.72"
            fill="#723F24" />
        <path
            d="M624.24 303.09C622.789 303.589 621.526 304.521 620.62 305.76C621.02 301.59 620.48 297.38 620.56 293.18C620.64 288.98 621.42 284.6 624.07 281.34C627.44 277.18 633.17 275.69 638.53 275.55C646.31 275.34 654.36 277.6 660.06 282.9C663.729 286.335 666.111 290.923 666.81 295.9C666.99 297.27 667.59 302.41 666.16 303.29C664.91 304.07 660.16 301.38 658.63 300.95C647.27 297.611 635.098 298.369 624.24 303.09Z"
            fill="#88E3A3" />
        <path opacity="0.1"
            d="M473 67C476.866 67 480 63.866 480 60C480 56.134 476.866 53 473 53C469.134 53 466 56.134 466 60C466 63.866 469.134 67 473 67Z"
            fill="#6C63FF" />
        <path opacity="0.1"
            d="M520 202C523.866 202 527 198.866 527 195C527 191.134 523.866 188 520 188C516.134 188 513 191.134 513 195C513 198.866 516.134 202 520 202Z"
            fill="#6C63FF" />
        <path opacity="0.1"
            d="M387 74C390.866 74 394 70.866 394 67C394 63.134 390.866 60 387 60C383.134 60 380 63.134 380 67C380 70.866 383.134 74 387 74Z"
            fill="#6C63FF" />
        <path opacity="0.1"
            d="M172 404C181.941 404 190 395.941 190 386C190 376.059 181.941 368 172 368C162.059 368 154 376.059 154 386C154 395.941 162.059 404 172 404Z"
            fill="#6C63FF" />
        <path opacity="0.1"
            d="M897 107C900.866 107 904 103.866 904 100C904 96.134 900.866 93 897 93C893.134 93 890 96.134 890 100C890 103.866 893.134 107 897 107Z"
            fill="#6C63FF" />
        <path opacity="0.1"
            d="M905 218C917.703 218 928 207.703 928 195C928 182.297 917.703 172 905 172C892.297 172 882 182.297 882 195C882 207.703 892.297 218 905 218Z"
            fill="#6C63FF" />
        <path opacity="0.1"
            d="M942 137C945.866 137 949 133.866 949 130C949 126.134 945.866 123 942 123C938.134 123 935 126.134 935 130C935 133.866 938.134 137 942 137Z"
            fill="#6C63FF" />
        <path opacity="0.1"
            d="M880 265C883.866 265 887 261.866 887 258C887 254.134 883.866 251 880 251C876.134 251 873 254.134 873 258C873 261.866 876.134 265 880 265Z"
            fill="#6C63FF" />
        <path opacity="0.1"
            d="M459 123C462.866 123 466 119.866 466 116C466 112.134 462.866 109 459 109C455.134 109 452 112.134 452 116C452 119.866 455.134 123 459 123Z"
            fill="#6C63FF" />
        <path opacity="0.1"
            d="M197 477C200.866 477 204 473.866 204 470C204 466.134 200.866 463 197 463C193.134 463 190 466.134 190 470C190 473.866 193.134 477 197 477Z"
            fill="#6C63FF" />
        <path opacity="0.1"
            d="M186 317C189.866 317 193 313.866 193 310C193 306.134 189.866 303 186 303C182.134 303 179 306.134 179 310C179 313.866 182.134 317 186 317Z"
            fill="#6C63FF" />
        <path opacity="0.1"
            d="M570 60C573.866 60 577 56.866 577 53C577 49.134 573.866 46 570 46C566.134 46 563 49.134 563 53C563 56.866 566.134 60 570 60Z"
            fill="#6C63FF" />
        <path opacity="0.1"
            d="M593 123C596.866 123 600 119.866 600 116C600 112.134 596.866 109 593 109C589.134 109 586 112.134 586 116C586 119.866 589.134 123 593 123Z"
            fill="#6C63FF" />
    </g>
    <defs>
        <linearGradient id="paint0_linear_339_997" x1="384.56" y1="704.63" x2="384.56" y2="164"
            gradientUnits="userSpaceOnUse">
            <stop stop-color="#808080" stop-opacity="0.25" />
            <stop offset="0.54" stop-color="#808080" stop-opacity="0.12" />
            <stop offset="1" stop-color="#808080" stop-opacity="0.1" />
        </linearGradient>
        <linearGradient id="paint1_linear_339_997" x1="653" y1="701.04" x2="653" y2="161"
            gradientUnits="userSpaceOnUse">
            <stop stop-color="#808080" stop-opacity="0.25" />
            <stop offset="0.54" stop-color="#808080" stop-opacity="0.12" />
            <stop offset="1" stop-color="#808080" stop-opacity="0.1" />
        </linearGradient>
        <clipPath id="clip0_339_997">
            <rect width="1082" height="725" fill="white" />
        </clipPath>
    </defs>
</svg>
    