<svg width="716" height="557" viewBox="0 0 716 557" fill="none" xmlns="http://www.w3.org/2000/svg">
    <path
        d="M95.4897 359.067C95.4897 359.067 -10.6917 385.612 0.881751 455.331C0.881751 455.331 11.6705 481.877 59.8023 494.343C59.8023 494.343 171.018 541.646 205.876 544.13C240.735 546.616 322.06 578.162 409.204 527.534C409.204 527.534 475.598 487.696 563.559 493.556C563.559 493.556 741.68 524.423 711.598 435.009C711.598 435.009 709.273 422.722 658.921 413.443"
        fill="#D1D3D4" />
    <path
        d="M361.368 480.602C508.807 480.602 628.331 442.11 628.331 394.628C628.331 347.145 508.807 308.653 361.368 308.653C213.929 308.653 94.4053 347.145 94.4053 394.628C94.4053 442.11 213.929 480.602 361.368 480.602Z"
        fill="#BCBEC0" />
    <path opacity="0.3"
        d="M358.226 456.254C472.708 456.254 565.514 426.903 565.514 390.698C565.514 354.492 472.708 325.141 358.226 325.141C243.744 325.141 150.938 354.492 150.938 390.698C150.938 426.903 243.744 456.254 358.226 456.254Z"
        fill="black" />
    <path opacity="0.3"
        d="M128.035 459.961C175.16 459.961 213.363 441.183 213.363 418.019C213.363 394.855 175.16 376.077 128.035 376.077C80.9094 376.077 42.7065 394.855 42.7065 418.019C42.7065 441.183 80.9094 459.961 128.035 459.961Z"
        fill="black" />
    <path opacity="0.3"
        d="M260.974 355.095C295.239 355.095 323.016 346.072 323.016 334.942C323.016 323.812 295.239 314.789 260.974 314.789C226.71 314.789 198.933 323.812 198.933 334.942C198.933 346.072 226.71 355.095 260.974 355.095Z"
        fill="black" />
    <path opacity="0.3"
        d="M616.257 482.248C650.522 482.248 678.299 473.226 678.299 462.095C678.299 450.965 650.522 441.942 616.257 441.942C581.993 441.942 554.216 450.965 554.216 462.095C554.216 473.226 581.993 482.248 616.257 482.248Z"
        fill="black" />
    <path
        d="M228.419 299.489C228.419 299.489 203.763 301.124 212.704 320.629C212.704 320.629 219.755 337.968 257.682 340.41C257.682 340.41 287.488 340.953 294.262 338.786C296.772 333.701 296.569 327.697 293.72 322.796C293.72 322.796 307.206 310.107 320.329 318.41C320.679 318.634 321.002 318.901 321.285 319.206C322.346 320.321 324.704 323.22 324.067 325.78C324.067 325.78 347.427 312.624 340.121 296.77C340.121 296.77 336.352 289.825 326.148 289.602C322.999 289.581 319.88 290.192 316.974 291.398L298.871 298.682L228.419 299.489Z"
        fill="#455A64" />
    <path
        d="M300.505 251.527L298.955 296.303L298.871 298.67L286.946 308.428C275.426 318.983 261.101 315.458 254.029 312.676C251.016 311.489 249.069 308.544 249.157 305.308C249.157 305.308 249.157 305.308 249.157 305.233C249.38 296.738 252.341 283.795 252.341 283.795C229.311 287.585 228.504 299.499 228.504 299.499L224.702 258.587C224.956 247.554 229.555 241.078 234.376 237.352C237.65 234.809 241.489 233.094 245.567 232.35L265.901 232.616H279.981C300.198 233.379 300.505 251.527 300.505 251.527Z"
        fill="#97FCB5" />
    <path opacity="0.3"
        d="M278.76 245.76C278.784 246.092 278.517 246.374 278.185 246.366L260.911 245.845L251.789 254.967C250.864 255.877 249.36 255.803 248.53 254.807L234.301 237.298C237.575 234.757 241.414 233.041 245.492 232.297L265.826 232.562H277.687L278.76 245.76Z"
        fill="black" />
    <path d="M124.849 287.67L125.539 298.447L117.225 298.555L116.131 285.93L124.849 287.67Z"
        fill="#723F24" />
    <path
        d="M407.769 340.984C407.769 340.984 396.09 352.059 400.082 366.851C400.546 368.681 402.28 369.895 404.16 369.706C405.837 369.495 408.173 368.56 411.253 365.99C415.297 362.538 419.743 359.587 424.494 357.198L441.026 349.001C441.026 349.001 422.327 356.668 421.786 343.341L407.769 340.984Z"
        fill="#9E1FF1" />
    <path
        d="M421.786 343.383L447.619 346.358L441.026 349.001L434.571 352.186C434.571 352.186 421.85 353.026 421.786 343.383Z"
        fill="#723F24" />
    <path
        d="M563.528 288.689C563.528 288.689 612.935 293.054 626.069 305.679C626.069 305.679 647.082 337.194 595.605 337.194C595.605 337.194 573.54 335.623 539.403 344.552L466.955 325.641L470.63 301.485C470.63 301.485 549.872 282.223 563.528 288.689Z"
        fill="#455A64" />
    <path opacity="0.3"
        d="M563.528 288.689C563.528 288.689 612.935 293.054 626.069 305.679C626.069 305.679 647.082 337.194 595.605 337.194C595.605 337.194 573.54 335.623 539.403 344.552L466.955 325.641L470.63 301.485C470.63 301.485 549.872 282.223 563.528 288.689Z"
        fill="black" />
    <path
        d="M529.698 322.551C527.278 320.061 524.466 317.983 521.374 316.402C514.833 313.101 504.077 310.107 495.89 319.844C483.213 334.848 516.394 354.151 516.394 354.151C516.394 354.151 537.63 364.621 544.49 370.81C545.733 371.95 547.136 372.905 548.652 373.646C552.157 375.302 557.348 376.321 558.431 368.528C558.784 365.868 558.49 363.16 557.571 360.638C555.383 354.682 548.95 342.099 529.698 322.551Z"
        fill="#9E1FF1" />
    <path
        d="M447.514 83.25C447.514 83.25 448.575 121.199 458.95 132.476L500.552 118.003L502.994 109.773L489.881 82.0388L447.514 83.25Z"
        fill="#455A64" />
    <path opacity="0.3"
        d="M447.514 83.25C447.514 83.25 448.958 122.431 459.322 133.707L500.552 118.003L502.994 109.773L489.881 82.0388L447.514 83.25Z"
        fill="black" />
    <path
        d="M568.359 197.002C555.694 198.073 543.538 202.468 533.117 209.744C533.117 209.744 533.033 223.409 534.509 238.519C536.09 254.553 539.424 272.178 546.517 276.744L566.691 289.093C566.691 289.093 519.59 293.34 479.05 307.378C479.05 307.378 444.191 317.137 413.705 296.813C413.705 296.813 390.41 280.471 379.196 272.539C378.893 272.303 378.959 271.828 379.315 271.685C379.408 271.645 379.51 271.636 379.611 271.658C386.438 273.57 404.245 277.679 420.608 274.281C433.348 271.637 445.199 264.417 450.338 248.033C450.338 248.033 460.5 217.962 460.097 193.169L444.339 148.753L456.018 129.013C456.018 129.013 468.347 113.84 476.81 117.726C476.81 117.726 479.634 114.542 489.498 115.253L519.123 114.552C519.123 114.552 556.849 108.181 568.476 160.03C568.359 159.997 583.533 195.261 568.359 197.002Z"
        fill="#9E1FF1" />
    <path
        d="M532.448 214.278C530.75 185.736 546.592 122.812 546.592 122.812C546.592 122.812 541.708 116.315 528.297 114.679L518.475 153.967C516.928 160.245 511.816 165.015 505.446 166.125C494.584 167.971 479.24 167.759 478.709 152.066L476.692 117.674C476.692 117.674 467.338 114.265 459.608 126.052C459.608 126.052 464.492 167.462 460.021 193.116"
        fill="#9E1FF1" />
    <path opacity="0.3"
        d="M532.448 214.278C530.75 185.736 546.592 122.812 546.592 122.812C546.592 122.812 541.708 116.315 528.297 114.679L518.475 153.967C516.928 160.245 511.816 165.015 505.446 166.125C494.584 167.971 479.24 167.759 478.709 152.066L476.692 117.674C476.692 117.674 467.338 114.265 459.608 126.052C459.608 126.052 464.492 167.462 460.021 193.116"
        fill="white" />
    <path
        d="M487.979 105.345L489.392 115.211C489.392 115.211 483.743 114.859 485.866 120.52C485.866 120.52 487.991 131.457 497.493 130.745C497.493 130.745 516.883 129.353 519.006 114.53C519.006 114.53 514.42 107.491 513.018 94.7909L513.464 80.2545L487.979 105.345Z"
        fill="#723F24" />
    <path
        d="M487.979 105.345L489.392 115.211C489.392 115.211 506.667 109.572 502.431 90.8837L487.979 105.345Z"
        fill="#441E09" />
    <path
        d="M513.464 80.2333C510.426 95.0139 501.614 106.366 489.296 109.083C475.493 112.121 460.085 103.37 450.594 88.2724C448.185 84.4596 446.233 80.3798 444.774 76.1145C447.239 66.3139 442.503 53.4755 442.503 53.4755C442.216 52.8178 441.94 52.1487 441.705 51.4796C443.393 33.0051 454.119 18.0649 468.528 14.8789C480.111 12.3197 492.088 17.99 500.933 28.7674C506.941 36.2464 511.102 45.0343 513.081 54.4214C513.241 55.0791 513.368 55.7482 513.495 56.4287C513.622 57.1076 513.687 57.4902 513.772 57.9997C514.047 59.6766 514.249 61.3437 514.398 62.9896C514.929 68.7527 514.613 74.563 513.464 80.2333Z"
        fill="#723F24" />
    <path
        d="M556.031 132.424C544.967 117.718 530.612 116.211 530.612 116.211L518.932 115.509C515.396 110.2 512.943 95.7697 512.943 95.7697C512.943 91.9586 513.133 86.5325 513.389 81.2333C513.739 73.4075 514.206 65.8276 514.324 64.0644C514.324 63.8414 514.324 63.703 514.324 63.703C514.154 62.0994 513.931 60.5187 513.676 59.0746C513.591 58.5423 513.506 58.0115 513.399 57.502C513.293 56.9924 513.145 56.154 512.985 55.4963C509.928 41.3408 504.098 33.7381 504.098 33.7381C503.204 32.2891 502.105 30.977 500.839 29.8423C491.282 21.4743 479.421 34.4495 479.421 34.4495C463.558 47.1919 456.147 40.4389 456.147 40.4389C449.775 36.5626 446.272 38.6758 446.272 38.6758C446.272 38.6758 443.628 41.3311 445.147 46.8093C446.864 52.548 448.083 58.4234 448.788 64.3721C449.51 71.8056 450.306 81.3619 450.594 89.3245C450.709 92.8182 450.731 96.0253 450.594 98.6367C450.594 98.6367 449.192 113.45 456.582 122.612C456.582 122.612 459.768 124.375 455.891 130.046L444.212 149.785C444.212 149.785 443.149 144.847 450.582 132.499C450.582 132.499 457.283 124.004 447.396 111.708C436.779 98.456 444.583 77.8569 444.583 77.8569C444.647 77.6517 444.701 77.4417 444.743 77.2301C447.206 67.4295 442.47 54.5927 442.47 54.5927C442.184 53.935 441.907 53.2659 441.674 52.5968C441.103 50.9932 440.634 49.3555 440.272 47.6917C437.783 35.8887 440.308 23.581 447.248 13.7137C461.36 -6.46214 482.999 0.440572 491.952 4.51708C494.604 5.75436 497.519 6.3258 500.445 6.18416C537.907 3.9017 539.128 42.9232 538.193 58.1499C538.013 62.036 539.076 65.8797 541.23 69.1194C554.184 89.134 550.309 99.9749 548.015 103.744C546.665 105.888 545.97 108.379 546.019 110.912C546.001 112.523 546.416 114.111 547.219 115.509C554.62 125.035 556.031 132.424 556.031 132.424Z"
        fill="#191E21" />
    <path
        d="M482.632 65.8033C482.734 66.44 483.021 67.0327 483.457 67.5077C483.893 67.9828 484.46 68.3193 485.085 68.4756C485.711 68.6318 486.369 68.6008 486.978 68.3866C487.586 68.1723 488.118 67.7842 488.508 67.2703C488.898 66.7564 489.128 66.1394 489.17 65.4959C489.212 64.8524 489.065 64.2107 488.745 63.6504C488.426 63.0902 487.949 62.636 487.374 62.3444C486.798 62.0527 486.15 61.9364 485.509 62.0098C485.071 62.07 484.649 62.2159 484.267 62.4391C483.886 62.6623 483.552 62.9585 483.284 63.3108C483.017 63.6631 482.822 64.0645 482.71 64.4921C482.598 64.9198 482.572 65.3653 482.632 65.8033V65.8033Z"
        fill="black" />
    <path
        d="M482.194 54.99L490.577 57.0438C490.823 55.905 490.62 54.7149 490.009 53.7227C489.398 52.7305 488.426 52.0132 487.298 51.7209C486.748 51.5878 486.176 51.5675 485.617 51.6612C485.059 51.7549 484.525 51.9608 484.048 52.2662C483.571 52.5716 483.161 52.9704 482.842 53.4385C482.524 53.9066 482.303 54.4344 482.194 54.99Z"
        fill="black" />
    <path
        d="M489.574 82.7063L478.249 89.3652C478.658 90.1302 479.218 90.8042 479.895 91.3466C480.572 91.8891 481.352 92.2886 482.188 92.521C483.024 92.7535 483.898 92.814 484.758 92.699C485.618 92.584 486.446 92.2959 487.191 91.852C488.686 90.9245 489.768 89.4577 490.211 87.7553C490.655 86.0528 490.427 84.2451 489.574 82.7063V82.7063Z"
        fill="#388E3B" />
    <path
        d="M483.844 92.2382C483.864 92.4407 483.894 92.6419 483.936 92.841C485.095 92.8513 486.235 92.541 487.23 91.9447C488.366 91.2397 489.267 90.2137 489.82 88.9965C490.372 87.7794 490.551 86.4257 490.334 85.1068C489.892 85.0761 489.448 85.0941 489.01 85.1604C487.389 85.4203 485.936 86.3101 484.969 87.6359C484.001 88.9616 483.597 90.6159 483.844 92.2382V92.2382Z"
        fill="#C8E6C9" />
    <path
        d="M453.139 62.5482L460.47 58.3478C460.213 57.8637 459.86 57.4365 459.434 57.0919C459.007 56.7472 458.516 56.4923 457.988 56.3423C457.461 56.1922 456.908 56.1502 456.364 56.2187C455.82 56.2873 455.295 56.4649 454.821 56.7411C453.832 57.2916 453.099 58.2108 452.784 59.2985C452.469 60.3862 452.597 61.5542 453.139 62.5482V62.5482Z"
        fill="black" />
    <path
        d="M456.188 69.1153C456.228 69.5571 456.357 69.9864 456.565 70.3781C456.773 70.7698 457.058 71.116 457.401 71.3967C457.745 71.6773 458.141 71.8867 458.567 72.0127C458.992 72.1387 459.438 72.1786 459.88 72.1303C460.564 72.075 461.215 71.8165 461.751 71.388C462.287 70.9595 462.682 70.3807 462.887 69.7258C463.091 69.0709 463.095 68.3699 462.897 67.7129C462.7 67.056 462.31 66.4731 461.779 66.0391C461.248 65.6052 460.599 65.3401 459.915 65.2778C459.232 65.2156 458.546 65.359 457.944 65.6897C457.343 66.0205 456.855 66.5234 456.542 67.1338C456.229 67.7443 456.105 68.4343 456.188 69.1153V69.1153Z"
        fill="black" />
    <path d="M476.042 83.139L463.686 82.7018L472.098 61.7825L476.042 83.139Z" fill="#441E09" />
    <path
        d="M443.203 42.9326C443.203 42.9326 449.138 34.6721 456.241 39.4063C457.304 40.1178 465.055 44.7169 479.517 33.4185C479.517 33.4185 489.562 20.3164 500.933 28.8097C508.956 38.4898 513.674 50.48 514.398 63.0319C514.398 63.0319 526.364 58.0632 528.881 69.7425C528.881 69.7425 531.535 81.7848 520.153 83.3444C517.662 83.0009 515.334 81.9216 513.464 80.2447L513.018 94.7811C513.018 94.7811 514.77 109.646 519.006 114.521C519.006 114.521 529.623 115.221 535.58 115.932C535.58 115.932 547.123 98.773 534.157 75.5838C533.278 74.0209 532.873 72.2349 532.99 70.4441C533.807 58.0958 534.657 8.96435 496.091 13.2867C496.091 13.3176 454.48 -5.37017 443.203 42.9326Z"
        fill="#191D1F" />
    <path opacity="0.3"
        d="M566.714 289.05C566.714 289.05 519.611 293.298 479.071 307.334C479.071 307.334 444.212 317.093 413.726 296.77C413.726 296.77 390.431 280.428 379.218 272.497C378.915 272.261 378.98 271.785 379.336 271.641C379.429 271.603 379.532 271.593 379.633 271.616C386.459 273.527 404.266 277.636 420.629 274.239C428.422 277.423 438.998 281.905 447.641 286.364C455.927 290.673 465.236 292.635 474.558 292.035C491.834 290.877 517.308 285.27 528.36 263.44C528.36 263.44 532.821 255.709 529.985 237.829L534.561 238.486C536.144 254.52 539.478 272.147 546.571 276.712L566.714 289.05Z"
        fill="black" />
    <path
        d="M436.546 191.406C435.774 194.934 434.402 198.304 432.489 201.366C432.489 201.366 436.652 222.677 436.652 234.485C436.652 234.485 454.257 227.178 459.789 196.567L453.513 189.187L436.546 191.406Z"
        fill="#441E09" />
    <path
        d="M404.458 186.978C404.458 186.978 402.61 240.834 430.652 236.777C430.652 236.777 441.716 237.84 438.765 220.914L429.908 188.083L404.458 186.978Z"
        fill="#723F24" />
    <path
        d="M405.562 161.155C405.562 161.155 403.024 144.665 407.419 137.987C408.741 136.082 411.628 136.31 412.634 138.4C413.791 140.779 415.553 144.559 417.741 149.729L417.37 163.002L405.562 161.155Z"
        fill="#723F24" />
    <path d="M379.748 159.318L397.82 196.938L461.996 193.254L470.109 150.835L379.748 159.318Z"
        fill="#9E1FF1" />
    <path d="M425.853 117.632L404.458 157.099L449.51 152.937L425.853 117.632Z" fill="#9E1FF1" />
    <path opacity="0.5" d="M425.853 117.632L404.458 157.099L449.51 152.937L425.853 117.632Z"
        fill="white" />
    <path d="M425.853 117.632L427.955 154.848L404.458 157.099L425.853 117.632Z" fill="#9E1FF1" />
    <path opacity="0.5"
        d="M442.98 194.337C442.98 194.337 427.701 184.398 443.193 177.348C443.193 177.348 449.829 176.976 447.248 169.596C447.248 169.596 445.029 157.799 467.901 162.96L461.996 193.212L442.98 194.337Z"
        fill="white" />
    <path d="M625.304 345.646L625.633 358.716L643.928 358.387L642.623 331.598L625.304 345.646Z"
        fill="#441E09" />
    <path
        d="M567.478 423.074C567.478 423.074 578.914 463.922 617.138 464.239C617.138 464.239 664.506 474.04 671.696 451.499L601.127 413.931L567.478 423.074Z"
        fill="#455A64" />
    <path opacity="0.3"
        d="M587.079 417.202C590.237 426.665 596.297 434.895 604.398 440.721L606.68 421.12L601.127 413.931L587.079 417.202Z"
        fill="black" />
    <path
        d="M533.828 408.049L516.51 386.164L553.749 384.529L573.36 374.4L591.974 393.342L590.349 409.684L548.524 418.178L533.828 408.049Z"
        fill="#9E1FF1" />
    <path opacity="0.3"
        d="M533.828 408.049L516.51 386.164L553.749 384.529L573.36 374.4L591.974 393.342L590.349 409.684L548.524 418.178L533.828 408.049Z"
        fill="white" />
    <path opacity="0.3"
        d="M553.749 384.529L564.788 392.275L584.467 406.084L548.524 418.178L533.828 408.049L516.51 386.164L553.749 384.529Z"
        fill="white" />
    <path
        d="M164.624 316.604L167.301 342.63C168.193 362.921 162.83 367.105 162.83 367.105C152.976 375.175 140.054 355.553 140.054 355.553L151.266 329.208L151.776 327.999L151.597 325.693L150.259 308.652L159.019 308.938C159.141 308.948 159.226 308.821 159.172 308.71C159.161 308.687 159.144 308.666 159.125 308.652C156.331 306.167 159.421 303.916 160.865 302.643C161.303 302.26 161.451 301.643 161.238 301.102C159.677 296.951 163.436 298.766 166.547 300.741C169.205 302.384 170.493 305.558 169.731 308.588C168.767 311.665 167.006 314.431 164.624 316.604Z"
        fill="#723F24" />
    <path
        d="M150.28 308.651L150.747 314.683C150.747 314.683 163.553 313.716 159.306 308.992L150.28 308.651Z"
        fill="#441E09" />
    <path
        d="M155.366 245.549L204.634 249.731C204.634 249.731 201.354 284.357 202.244 310.34L139.597 308.217C139.597 308.217 132.452 298.31 124.042 297.045L124.903 287.639L155.366 245.549Z"
        fill="#9D1FF1" fill-opacity="0.34" />
    <path
        d="M82.249 397.218C82.249 397.218 69.5067 411.956 71.8217 419.198C72.284 420.493 73.7525 421.12 75.0077 420.557C82.3255 417.389 89.0703 413.032 94.9702 407.666L82.249 397.218Z"
        fill="#723F24" />
    <path
        d="M99.7256 412.2C99.7256 412.2 88.1522 426.056 94.9588 430.59C94.9588 430.59 99.0044 433.224 109.749 422.851C111.25 421.389 113.199 420.472 115.283 420.249C118.786 419.888 124.128 419.963 127.662 422.914C127.662 422.68 126.527 407.136 107.415 411.808C107.424 411.808 102.7 412.879 99.7256 412.2Z"
        fill="#723F24" />
    <path
        d="M159.083 350.063L154.103 344.754C157.287 341.197 155.897 338.382 155.897 338.382L151.236 329.4V329.145L151.745 327.935L151.564 325.63V325.524C160.515 333.732 159.083 350.063 159.083 350.063Z"
        fill="#441E09" />
    <path
        d="M239.26 214.682C239.26 214.682 241.469 217.335 244.696 229.228C245.235 231.338 245.589 233.492 245.759 235.663C246.045 238.774 247.659 243.945 255.25 243.945C255.25 243.945 268.248 243.138 266.623 235.004L262.832 223.325L242.244 212.217L239.26 214.682Z"
        fill="#723F24" />
    <path
        d="M262.832 223.356L266.623 235.037C266.623 235.037 253.881 237.479 250.908 223.654L262.832 223.356Z"
        fill="#441E09" />
    <path opacity="0.3"
        d="M243.921 256.953C243.921 256.953 252.045 270.501 252.32 283.774L255.304 282.711C255.304 282.711 255.25 269.959 243.921 256.953Z"
        fill="black" />
    <path opacity="0.1"
        d="M340.6 239.209C340.6 239.209 316.124 242.82 305.676 252.301L298.871 298.682L323.133 292.077L340.6 239.209Z"
        fill="black" />
    <path opacity="0.3"
        d="M290.005 317.975C290.005 317.975 305.633 297.205 323.919 294.54C323.919 294.54 299.773 293.479 290.005 317.975Z"
        fill="black" />
    <path opacity="0.3"
        d="M231.784 314.428C231.784 314.428 268.354 315.139 287.169 324.547C287.169 324.547 272.792 315.67 263.555 315.31C254.316 314.949 252.023 312.293 231.784 314.428Z"
        fill="black" />
    <path
        d="M294.262 338.786C294.262 338.786 324.64 337.724 324.408 325.355C324.408 325.355 324.119 317.423 313.544 315.745C309.497 315.131 305.358 315.691 301.62 317.358C298.749 318.831 296.069 320.653 293.646 322.784C293.646 322.784 298.456 329.485 294.262 338.786Z"
        fill="#723F24" />
    <path opacity="0.3"
        d="M298.944 296.313L298.859 298.67L286.946 308.428C275.426 318.973 261.101 315.458 254.029 312.676C251.009 311.496 249.056 308.547 249.145 305.308V305.244L259.063 301.262C259.063 301.262 254.475 315.947 268.258 311.54C276.855 308.816 284.578 303.864 290.641 297.184L298.944 296.313Z"
        fill="black" />
    <path d="M373.856 450.001L435.431 484.139L468.963 430.485L417.751 407.316L373.856 450.001Z"
        fill="#97FCB5" />
    <path opacity="0.3"
        d="M380.8 453.856L378.06 457.592L438.647 490.011L451.357 468.816L449.117 462.084L435.431 484.139L380.8 453.856Z"
        fill="black" />
    <path
        d="M524.411 476.047C524.411 476.047 497.62 475.071 461.848 492.155C461.264 492.42 460.681 492.707 460.085 492.993L449.117 462.084L461.329 442.877L504.958 422.191C504.958 422.191 515.427 463.57 524.411 476.047Z"
        fill="#455A64" />
    <path opacity="0.3"
        d="M527.426 482.281C503.492 481.526 463.102 500.734 463.102 500.734L461.848 492.239V492.145C497.62 475.059 524.411 476.036 524.411 476.036L527.426 482.281Z"
        fill="black" />
    <path opacity="0.3" d="M466.446 434.455L473.05 437.397L461.329 442.877L466.446 434.455Z"
        fill="black" />
    <path
        d="M339.484 447.484L337.913 451.212L318.249 497.379C303.924 475.613 274.236 473.403 259.732 473.732C256.93 473.78 254.135 473.968 251.354 474.296L287.105 427.054C287.484 426.568 288.08 426.301 288.697 426.343C316.92 428.817 339.484 447.484 339.484 447.484Z"
        fill="#455A64" />
    <path opacity="0.3"
        d="M342.936 453.058L320.372 503.474C303.914 478.543 255.092 480.391 255.092 480.391L259.732 473.732C274.236 473.404 303.924 475.613 318.249 497.379L337.902 451.212L342.936 453.058Z"
        fill="black" />
    <path
        d="M313.471 394.659C288.709 393.407 266.316 405.83 263.809 407.263L263.585 407.39L253.064 368.953C253 368.762 253.033 368.554 253.148 368.389C259.742 359.45 307.896 363.877 307.896 363.877C307.654 365.747 307.559 367.632 307.608 369.516C307.885 381.918 313.471 394.659 313.471 394.659Z"
        fill="#E6E7E8" />
    <path opacity="0.3"
        d="M317.186 399.458C295.419 399.458 265.975 414.579 265.975 414.579L263.851 407.284C266.358 405.851 288.751 393.428 313.513 394.68C313.513 394.68 307.927 381.939 307.651 369.537L311.654 369.474C311.611 384.327 317.186 399.458 317.186 399.458Z"
        fill="black" />
    <path opacity="0.3"
        d="M353.946 431.569C376.148 431.569 394.146 428.54 394.146 424.804C394.146 421.069 376.148 418.04 353.946 418.04C331.744 418.04 313.746 421.069 313.746 424.804C313.746 428.54 331.744 431.569 353.946 431.569Z"
        fill="black" />
    <path
        d="M520.153 83.3347C525.249 83.3347 529.381 78.4526 529.381 72.4303C529.381 66.408 525.249 61.526 520.153 61.526C515.057 61.526 510.926 66.408 510.926 72.4303C510.926 78.4526 515.057 83.3347 520.153 83.3347Z"
        fill="#723F24" />
    <path
        d="M563.092 243.457C560.162 248.554 555.904 252.196 549.788 253.013C547.834 253.313 545.845 253.273 543.906 252.896C537.588 252.015 525.728 248.648 506.265 237.521L471.968 213.184C471.968 213.184 462.412 209.129 460.16 199.54C460.16 199.54 456.847 194.74 453.163 194.379C453.163 194.379 447.26 192.16 450.573 185.513C450.573 185.513 446.887 180.352 450.573 175.956C450.573 175.956 446.145 166.4 458.324 165.996C458.324 165.996 479.348 161.941 478.242 177.804C478.242 177.804 477.871 189.612 484.508 192.925L514.972 206.527L532.448 214.32L532.3 209.882C532.3 209.882 544.533 198.955 568.402 197.055C568.37 197.002 572.341 227.401 563.092 243.457Z"
        fill="#723F24" />
    <path
        d="M563.082 243.466C560.152 248.564 555.904 252.205 549.788 253.023C547.831 253.316 545.838 253.277 543.895 252.907C544.192 247.035 550.032 242.288 557.168 242.288C559.198 242.28 561.208 242.682 563.082 243.466Z"
        fill="#441E09" />
    <path
        d="M532.3 209.829L532.448 214.278C532.448 214.278 543.152 218.695 544.988 225.342C544.988 225.342 560.852 194.729 568.593 205.422L568.358 197.002C568.358 197.002 548.769 197.023 532.3 209.829Z"
        fill="#441E09" />
    <path
        d="M450.561 185.482C451.051 185.111 451.623 184.86 452.228 184.749C452.814 184.63 453.417 184.603 454.013 184.663C455.235 184.753 456.377 185.313 457.197 186.224C456.08 186.258 454.962 186.21 453.853 186.076C452.741 185.969 451.641 185.77 450.561 185.482Z"
        fill="#441E09" />
    <path
        d="M449.829 179.237C450.597 178.919 451.427 178.775 452.261 178.814C453.067 178.822 453.873 178.919 454.66 179.1C456.248 179.431 457.744 180.105 459.045 181.075C458.237 181.099 457.43 181.042 456.635 180.904C455.86 180.81 455.105 180.639 454.351 180.481C453.597 180.321 452.855 180.119 452.111 179.906L449.829 179.237Z"
        fill="#441E09" />
    <path
        d="M450.561 175.926C451.04 175.302 451.673 174.817 452.398 174.512C453.122 174.175 453.913 174.006 454.713 174.014C455.532 174.008 456.337 174.221 457.049 174.63C457.746 175.012 458.314 175.592 458.683 176.297C458.013 176.046 457.329 175.833 456.635 175.66C456.004 175.501 455.352 175.427 454.703 175.437C453.309 175.465 451.922 175.629 450.561 175.926Z"
        fill="#441E09" />
    <path
        d="M516.223 207.641L486.716 196.206C471.968 191.406 478.221 177.751 478.221 177.751C478.221 177.751 477.85 189.558 484.486 192.871L514.95 206.473L516.223 207.641Z"
        fill="#441E09" />
    <path
        d="M495.847 319.844C495.847 319.844 537.778 336.959 533.244 353.822C533.244 353.822 533.244 362.263 521.182 355.945C521.182 355.945 508.207 351.697 500.36 350.211C500.36 350.211 485.58 349.001 490.411 330.6L495.847 319.844Z"
        fill="#723F24" />
    <path
        d="M379.165 272.551C379.165 272.551 342.469 264.215 338.815 293.638C338.815 293.638 329.355 320.948 366.125 331.981C366.125 331.981 382.934 340.91 456.476 347.206L501.645 350.392C501.645 350.392 479.061 348.821 495.869 319.929L470.088 306.188C470.088 306.188 436.354 287.66 379.165 272.551Z"
        fill="#455A64" />
    <path
        d="M622.118 351.038C638.105 351.038 651.064 332.208 651.064 308.98C651.064 285.753 638.105 266.923 622.118 266.923C606.132 266.923 593.172 285.753 593.172 308.98C593.172 332.208 606.132 351.038 622.118 351.038Z"
        fill="#723F24" />
    <path
        d="M683.959 314.397C683.959 314.397 690.213 353.96 656.777 357.464C655.715 357.581 654.652 357.654 653.591 357.697C653.591 357.697 630.688 356.03 639.012 336.047C639.228 331.033 638.95 326.013 638.185 321.054C638.185 321.054 635.264 311.497 641.519 307.738C641.519 307.738 630.263 298.182 631.517 278.571C631.517 278.571 609.451 287.32 609.866 271.138C609.866 271.138 602.538 263.483 612.414 257.334C614.089 256.319 615.868 255.488 617.723 254.849C617.723 254.849 648.122 227.359 668.106 267.336C668.127 267.336 705.61 279.409 683.959 314.397Z"
        fill="#191E21" />
    <path opacity="0.3"
        d="M667.714 321.479C667.714 321.479 675.655 345.571 656.777 357.464C655.715 357.581 654.652 357.654 653.591 357.697C653.591 357.697 630.688 356.03 639.012 336.047C639.228 331.033 638.95 326.012 638.185 321.054C638.185 321.054 635.264 311.497 641.519 307.738C641.519 307.738 630.263 298.182 631.517 278.571C631.517 278.571 609.451 287.32 609.866 271.137C609.866 271.137 602.538 263.483 612.414 257.334C616.396 257.334 644.576 257.737 651.924 279.006C651.893 279.006 686.444 288.573 667.714 321.479Z"
        fill="black" />
    <path
        d="M548.524 412.297C548.524 412.297 579.891 403.473 584.467 398.248L601.127 413.931C601.127 413.931 597.856 424.389 570.737 425.366L547.876 426.014C547.876 426.014 536.441 429.285 534.147 424.06C534.147 424.06 530.888 423.403 532.194 418.826C532.194 418.826 529.252 418.507 530.558 414.579C530.558 414.579 525.652 409.355 535.453 408.049C535.453 408.049 539.381 406.095 548.524 412.297Z"
        fill="#723F24" />
    <path
        d="M537.09 411.649C535.73 412.008 534.552 412.2 533.467 412.593C532.938 412.778 532.434 413.026 531.96 413.325C531.459 413.703 530.99 414.121 530.558 414.579C530.506 413.845 530.729 413.119 531.185 412.541C531.652 411.95 532.279 411.504 532.99 411.255C533.673 411.025 534.395 410.937 535.113 411.001C535.817 411.045 536.496 411.268 537.09 411.649Z"
        fill="#441E09" />
    <path
        d="M536.77 416.213C535.886 416.342 535.033 416.629 534.253 417.063C533.912 417.28 533.592 417.529 533.298 417.807C532.969 418.104 532.64 418.454 532.236 418.869C532.124 418.314 532.187 417.74 532.417 417.223C532.655 416.674 533.055 416.21 533.563 415.896C534.576 415.243 535.904 415.375 536.77 416.213Z"
        fill="#441E09" />
    <path
        d="M534.147 424.06C534.23 423.572 534.46 423.119 534.805 422.765C535.129 422.421 535.518 422.146 535.953 421.959C536.842 421.54 537.879 421.592 538.724 422.097C538.356 422.353 537.968 422.579 537.566 422.776C537.205 422.957 536.855 423.105 536.505 423.264C535.743 423.595 534.953 423.862 534.147 424.06Z"
        fill="#441E09" />
    <path
        d="M677.897 435.167C677.897 435.167 679.212 448.897 668.425 453.791C668.425 453.791 625.633 461.299 609.293 446.274C609.293 446.274 600.139 440.391 601.456 426.025L601.127 413.931C601.127 413.931 587.663 414.642 584.637 404.821C583.751 401.726 584.134 398.406 585.698 395.593C590.955 385.623 608.878 354.183 625.666 354.47C625.666 354.47 654.091 347.938 668.139 373.741C668.139 373.741 668.52 374.379 669.137 375.61C672.365 382.118 682.293 404.948 677.897 435.167Z"
        fill="#97FCB5" />
    <path opacity="0.3"
        d="M677.897 435.167C677.897 435.167 623.67 466.204 601.775 427.979L601.127 413.931C601.127 413.931 625.92 397.399 627.8 374.696C628.048 371.321 629.334 368.104 631.484 365.492C636.284 359.758 646.944 355.447 669.094 375.61C672.365 382.118 682.293 404.948 677.897 435.167Z"
        fill="#373535" />
    <path
        d="M161.332 422.468C150.151 423.662 138.882 423.815 127.674 422.924C126.483 415.981 122.64 412.933 118.617 411.722C114.941 410.787 111.084 410.815 107.424 411.808C75.8364 417.467 82.3663 384.2 82.3663 384.2C83.6817 370.906 90.2231 319.058 90.2231 319.058C89.523 316.371 94.5877 311.126 98.2296 307.781C100.348 305.824 102.825 304.295 105.525 303.279L120.952 297.482C123.19 296.601 125.691 296.674 127.875 297.684C139.014 302.897 148.719 321.915 153.497 332.723C154.558 335.102 155.345 337.076 155.885 338.426C156.39 339.711 156.273 341.156 155.568 342.343C152.037 348.37 146.568 353.023 140.054 355.541C139.032 355.912 138.456 356.993 138.716 358.048C142.168 373.05 158.604 377.861 158.604 377.861C188.452 387.873 189.1 400.297 189.1 400.297C193.124 414.833 177.717 420.43 161.332 422.468Z"
        fill="#9E1FF1" />
    <path opacity="0.3"
        d="M161.332 422.468C150.151 423.662 138.882 423.815 127.674 422.924C126.483 415.981 122.64 412.933 118.617 411.722C114.941 410.787 111.084 410.815 107.424 411.808C75.8364 417.467 82.3663 384.2 82.3663 384.2C83.6817 370.906 90.2231 319.058 90.2231 319.058C89.523 316.371 94.5877 311.126 98.2296 307.781C100.348 305.824 102.825 304.295 105.525 303.279L120.952 297.482C123.19 296.601 125.691 296.674 127.875 297.684C139.014 302.897 148.719 321.915 153.497 332.723C154.558 335.102 155.345 337.076 155.885 338.426C156.39 339.711 156.273 341.156 155.568 342.343C152.037 348.37 146.568 353.023 140.054 355.541C139.032 355.912 138.456 356.993 138.716 358.048C142.168 373.05 158.604 377.861 158.604 377.861C188.452 387.873 189.1 400.297 189.1 400.297C193.124 414.833 177.717 420.43 161.332 422.468Z"
        fill="black" />
    <path opacity="0.3"
        d="M158.604 377.84C158.604 377.84 139.226 378.265 133.555 367.807C133.407 367.54 133.269 367.253 133.121 366.945C127.812 355.806 127.239 327.52 127.239 327.52L135.955 344.51C139.003 350.615 153.38 332.744 153.38 332.744H153.497C154.558 335.123 155.345 337.098 155.885 338.447C156.39 339.732 156.273 341.177 155.568 342.364C152.036 348.391 146.568 353.044 140.054 355.562C139.032 355.933 138.456 357.014 138.716 358.069C142.168 373.029 158.604 377.84 158.604 377.84Z"
        fill="#441E09" />
    <path
        d="M128.194 291.29C143.037 291.29 155.069 271.424 155.069 246.918C155.069 222.411 143.037 202.545 128.194 202.545C113.352 202.545 101.319 222.411 101.319 246.918C101.319 271.424 113.352 291.29 128.194 291.29Z"
        fill="#723F24" />
    <path
        d="M116.673 269.524L120.092 253.321C136.307 240.09 132.886 217.908 132.886 217.908C132.886 217.908 143.133 224.28 147.392 216.624C147.392 216.624 151.639 222.167 153.37 232.839C153.37 232.839 162.755 207.239 136.73 195.675C136.73 195.675 107.53 179.375 91.3171 200.028C89.4139 202.426 86.4868 203.782 83.4278 203.681C72.4697 203.372 48.1539 207.706 54.8124 253.703C54.8124 253.703 55.9683 281.755 72.1294 301.75C73.7656 303.74 74.5991 306.27 74.4656 308.844C74.0309 316.223 74.9443 330.356 90.223 318.973C90.223 318.973 97.9105 337.745 110.282 318.548C110.282 318.59 126.06 309.628 116.673 269.524Z"
        fill="#191E21" />
    <path opacity="0.3"
        d="M74.6462 318.027C74.6462 318.027 90.319 310.903 76.7691 288.095C76.7691 288.095 39.3626 221.116 94.2262 212.207C94.2262 212.207 119.88 179.079 155.152 218.577C155.278 223.38 154.672 228.175 153.358 232.796C153.358 232.796 150.301 220.998 147.38 216.582C147.38 216.582 143.377 223.908 132.877 217.866C132.877 217.866 135.955 239.867 120.082 253.278L116.662 269.482C116.662 269.482 127.376 305.934 110.291 318.548C110.291 318.548 99.0369 337.778 90.2343 318.973C90.2229 319.015 79.636 329.07 74.6462 318.027Z"
        fill="black" />
    <path
        d="M116.673 269.536C120.444 269.536 123.501 265.523 123.501 260.573C123.501 255.624 120.444 251.611 116.673 251.611C112.902 251.611 109.845 255.624 109.845 260.573C109.845 265.523 112.902 269.536 116.673 269.536Z"
        fill="#723F24" />
    <path opacity="0.3"
        d="M161.332 422.468C150.151 423.662 138.882 423.815 127.674 422.924C126.483 415.981 122.64 412.933 118.617 411.722C119.678 411.032 138.409 398.906 153.953 401.327C155.478 401.558 156.878 402.307 157.914 403.452C160.004 405.837 161.329 408.798 161.715 411.945C162.407 415.435 162.277 419.038 161.332 422.468Z"
        fill="black" />
    <path
        d="M266.358 229.589C283.868 229.589 298.063 210.907 298.063 187.86C298.063 164.814 283.868 146.132 266.358 146.132C248.848 146.132 234.653 164.814 234.653 187.86C234.653 210.907 248.848 229.589 266.358 229.589Z"
        fill="#723F24" />
    <path
        d="M295.356 171.326L294.994 170.265C294.306 167.952 293.301 165.742 292.01 163.702L291.841 163.458C286.692 170.234 278.823 163.193 278.823 163.193C268.004 155.336 261.207 171.326 261.207 171.326C259.594 178.643 250.101 177.825 250.101 177.825C236.022 171.593 236.701 202.247 236.701 202.247C229.269 202.512 230.33 211.803 230.33 211.803C210.283 204.753 209.773 184.928 209.773 184.928C209.231 152.416 235.257 154.858 235.257 154.858C239.6 145.376 246.374 142.117 246.374 142.117C254.869 138.146 262.014 136.998 267.992 137.412C277.226 138.001 285.707 142.711 291.087 150.239C312.005 152.565 295.95 170.615 295.356 171.326Z"
        fill="#191E21" />
    <path
        d="M236.691 218.483C240.655 218.483 243.869 214.842 243.869 210.35C243.869 205.858 240.655 202.216 236.691 202.216C232.727 202.216 229.513 205.858 229.513 210.35C229.513 214.842 232.727 218.483 236.691 218.483Z"
        fill="#723F24" />
    <path opacity="0.3"
        d="M295.356 171.326L294.994 170.265C294.241 167.976 293.241 165.777 292.01 163.703L291.841 163.458C286.776 147.532 269.894 138.368 267.939 137.36C277.173 137.948 285.653 142.657 291.034 150.187C312.005 152.565 295.95 170.615 295.356 171.326Z"
        fill="black" />
    <path d="M305.676 252.302L268.333 249.636L262.991 301.049L298.871 298.682L305.676 252.302Z"
        fill="#D1D3D4" />
    <path
        d="M340.6 239.209C340.6 239.209 316.124 242.82 305.676 252.301L298.871 298.682L323.133 292.077L340.6 239.209Z"
        fill="#D1D3D4" />
    <path
        d="M228.419 299.489C228.419 299.489 228.802 318.994 247.468 309.778L268.704 296.357C269.832 295.636 271.172 295.315 272.505 295.444C277.899 295.911 292.212 296.728 290.641 290.6C290.641 290.6 294.273 288.17 291.607 285.016C291.607 285.016 296.215 283.805 293.062 278.231C293.062 278.231 289.876 271.68 279.004 272.922C279.37 272.59 279.688 272.205 279.948 271.785C280.808 270.263 279.696 268.38 277.948 268.396C277.63 268.399 277.318 268.469 277.028 268.599C274.778 269.663 271.167 272.114 267.96 277.912C266.643 280.256 264.264 281.811 261.589 282.074C252.129 283.072 230.755 286.822 228.419 299.489Z"
        fill="#723F24" />
    <path
        d="M291.606 285.037C290.685 285.371 289.69 285.448 288.73 285.26C287.758 285.106 286.845 284.695 286.086 284.07C287.971 283.444 290.047 283.807 291.606 285.037Z"
        fill="#441E09" />
    <path
        d="M289.77 290.6C287.061 291.465 284.141 291.377 281.489 290.356C282.823 289.892 284.237 289.689 285.65 289.762C287.064 289.778 288.463 290.063 289.77 290.6Z"
        fill="#441E09" />
    <path
        d="M307.896 398.397L330.724 424.135C330.724 424.135 369.471 431.036 388.837 418.03L399.807 384.858C399.843 384.793 399.795 384.713 399.721 384.713C399.685 384.713 399.654 384.733 399.636 384.762C396.077 388.863 391.54 391.999 386.449 393.884L351.95 351.953L329.397 388.84L307.896 398.397Z"
        fill="#9E1FF1" />
    <path
        d="M379.016 385.102L399.807 384.837C399.807 384.837 396.005 389.881 386.449 393.863L379.016 385.102Z"
        fill="#9E1FF1" />
    <path opacity="0.3"
        d="M379.016 385.102L399.807 384.837C399.807 384.837 396.005 389.881 386.449 393.863L379.016 385.102Z"
        fill="black" />
    <path opacity="0.3"
        d="M355.411 399.193L351.962 351.953L329.397 388.84L307.896 398.397C307.896 398.397 342.925 402.909 355.411 399.193Z"
        fill="black" />
</svg>
    